<svg xmlns="http://www.w3.org/2000/svg" xmlns:xlink="http://www.w3.org/1999/xlink" width="793" zoomAndPan="magnify" viewBox="0 0 594.95996 842.24997" height="1122" preserveAspectRatio="xMidYMid meet" version="1.0"><defs><filter x="0%" y="0%" width="100%" height="100%" id="075ffbf3a7"><feColorMatrix values="0 0 0 0 1 0 0 0 0 1 0 0 0 0 1 0 0 0 1 0" color-interpolation-filters="sRGB"/></filter><g/><clipPath id="9db8ecaffd"><path d="M 535.632812 283.5 L 560.363281 283.5 L 560.363281 454.347656 L 535.632812 454.347656 Z M 535.632812 283.5 " clip-rule="nonzero"/></clipPath><mask id="5aa08171d7"><g filter="url(#075ffbf3a7)"><rect x="-59.495996" width="713.951952" fill="#000000" y="-84.224997" height="1010.699964" fill-opacity="0.47"/></g></mask><clipPath id="33fd99c89c"><path d="M 1 0.480469 L 320 0.480469 L 320 328.417969 L 1 328.417969 Z M 1 0.480469 " clip-rule="nonzero"/></clipPath><clipPath id="4beedd387e"><rect x="0" width="321" y="0" height="329"/></clipPath><mask id="8ba7e3f1f1"><g filter="url(#075ffbf3a7)"><rect x="-59.495996" width="713.951952" fill="#000000" y="-84.224997" height="1010.699964" fill-opacity="0.52"/></g></mask><clipPath id="7bc6e1225b"><path d="M 15 18 L 124 18 L 124 126 L 15 126 Z M 15 18 " clip-rule="nonzero"/></clipPath><clipPath id="dc04242216"><path d="M 0.480469 69.714844 L 79.078125 1.371094 L 154.304688 87.890625 L 75.707031 156.230469 Z M 0.480469 69.714844 " clip-rule="nonzero"/></clipPath><clipPath id="47bd739f16"><path d="M 0.480469 69.714844 L 79.078125 1.371094 L 154.304688 87.890625 L 75.707031 156.230469 Z M 0.480469 69.714844 " clip-rule="nonzero"/></clipPath><clipPath id="77a09ac724"><path d="M 76 22 L 79 22 L 79 26 L 76 26 Z M 76 22 " clip-rule="nonzero"/></clipPath><clipPath id="357148f2ec"><path d="M 0.480469 69.714844 L 79.078125 1.371094 L 154.304688 87.890625 L 75.707031 156.230469 Z M 0.480469 69.714844 " clip-rule="nonzero"/></clipPath><clipPath id="a7776f3c4c"><path d="M 0.480469 69.714844 L 79.078125 1.371094 L 154.304688 87.890625 L 75.707031 156.230469 Z M 0.480469 69.714844 " clip-rule="nonzero"/></clipPath><clipPath id="57dd607bbc"><path d="M 96 125 L 100 125 L 100 130 L 96 130 Z M 96 125 " clip-rule="nonzero"/></clipPath><clipPath id="d214843acd"><path d="M 0.480469 69.714844 L 79.078125 1.371094 L 154.304688 87.890625 L 75.707031 156.230469 Z M 0.480469 69.714844 " clip-rule="nonzero"/></clipPath><clipPath id="a8190c7c9d"><path d="M 0.480469 69.714844 L 79.078125 1.371094 L 154.304688 87.890625 L 75.707031 156.230469 Z M 0.480469 69.714844 " clip-rule="nonzero"/></clipPath><clipPath id="a1fb126d34"><path d="M 118 88 L 122 88 L 122 92 L 118 92 Z M 118 88 " clip-rule="nonzero"/></clipPath><clipPath id="3a8c0a7bb0"><path d="M 0.480469 69.714844 L 79.078125 1.371094 L 154.304688 87.890625 L 75.707031 156.230469 Z M 0.480469 69.714844 " clip-rule="nonzero"/></clipPath><clipPath id="4d95277640"><path d="M 0.480469 69.714844 L 79.078125 1.371094 L 154.304688 87.890625 L 75.707031 156.230469 Z M 0.480469 69.714844 " clip-rule="nonzero"/></clipPath><clipPath id="3e4d642f72"><path d="M 94 94 L 98 94 L 98 98 L 94 98 Z M 94 94 " clip-rule="nonzero"/></clipPath><clipPath id="911779233d"><path d="M 0.480469 69.714844 L 79.078125 1.371094 L 154.304688 87.890625 L 75.707031 156.230469 Z M 0.480469 69.714844 " clip-rule="nonzero"/></clipPath><clipPath id="947d0c7194"><path d="M 0.480469 69.714844 L 79.078125 1.371094 L 154.304688 87.890625 L 75.707031 156.230469 Z M 0.480469 69.714844 " clip-rule="nonzero"/></clipPath><clipPath id="9e50edb1c6"><path d="M 99 108 L 102 108 L 102 111 L 99 111 Z M 99 108 " clip-rule="nonzero"/></clipPath><clipPath id="804dd34c2f"><path d="M 0.480469 69.714844 L 79.078125 1.371094 L 154.304688 87.890625 L 75.707031 156.230469 Z M 0.480469 69.714844 " clip-rule="nonzero"/></clipPath><clipPath id="f0c089d7c7"><path d="M 0.480469 69.714844 L 79.078125 1.371094 L 154.304688 87.890625 L 75.707031 156.230469 Z M 0.480469 69.714844 " clip-rule="nonzero"/></clipPath><clipPath id="27886501ba"><rect x="0" width="155" y="0" height="156"/></clipPath></defs><g clip-path="url(#9db8ecaffd)"><path fill="#10d3f9" d="M 546.621094 375.582031 L 546.621094 349.40625 L 543.273438 351.347656 L 543.273438 372.21875 Z M 547.335938 348.996094 L 547.335938 376.300781 L 555.386719 384.390625 L 555.386719 344.328125 Z M 536.613281 417.328125 L 536.613281 411.6875 C 538.058594 413.140625 539.5 414.59375 540.949219 416.046875 L 540.949219 421.71875 C 539.507812 420.269531 538.058594 418.816406 536.613281 417.363281 Z M 536.613281 409.996094 L 536.613281 406.371094 L 540.949219 410.730469 L 540.949219 414.390625 L 536.613281 410.03125 Z M 536.613281 404.675781 L 536.613281 401.054688 L 540.949219 405.410156 L 540.949219 409.070312 L 536.613281 404.714844 Z M 536.757812 393.859375 L 540.949219 398.074219 L 540.949219 403.746094 L 536.613281 399.386719 L 536.613281 393.714844 Z M 549.671875 294.09375 L 549.671875 330.304688 L 547.332031 331.660156 L 547.332031 348.167969 L 555.382812 343.496094 L 555.382812 285.824219 C 554.90625 285.671875 554.5625 285.222656 554.5625 284.699219 C 554.5625 284.050781 555.089844 283.519531 555.734375 283.519531 C 556.382812 283.519531 556.910156 284.050781 556.910156 284.699219 C 556.910156 285.230469 556.566406 285.671875 556.089844 285.824219 L 556.089844 343.082031 L 557.910156 342.023438 L 557.910156 292.039062 L 558.625 292.039062 L 558.625 342.4375 L 556.085938 343.90625 L 556.085938 385.101562 L 559.410156 388.445312 L 559.410156 450.488281 C 559.886719 450.636719 560.230469 451.085938 560.230469 451.609375 C 560.230469 452.261719 559.703125 452.789062 559.058594 452.789062 C 558.410156 452.789062 557.882812 452.261719 557.882812 451.609375 C 557.882812 451.082031 558.226562 450.636719 558.703125 450.488281 L 558.703125 388.75 L 556.089844 386.121094 L 556.089844 440.664062 L 555.378906 440.664062 L 555.378906 385.402344 L 547.328125 377.3125 L 547.328125 454.359375 L 546.613281 454.359375 L 546.613281 376.597656 L 542.554688 372.515625 L 542.554688 350.9375 L 546.613281 348.582031 L 546.613281 332.078125 L 536.417969 337.996094 L 536.417969 388.265625 L 543.433594 395.316406 L 543.433594 452.066406 C 543.910156 452.214844 544.253906 452.664062 544.253906 453.1875 C 544.253906 453.839844 543.726562 454.367188 543.078125 454.367188 C 542.433594 454.367188 541.90625 453.839844 541.90625 453.1875 C 541.90625 452.660156 542.25 452.214844 542.726562 452.066406 L 542.726562 395.613281 L 535.710938 388.566406 L 535.710938 337.578125 L 546.625 331.246094 L 546.625 292.480469 C 546.148438 292.328125 545.804688 291.878906 545.804688 291.355469 C 545.804688 290.703125 546.332031 290.175781 546.976562 290.175781 C 547.625 290.175781 548.152344 290.703125 548.152344 291.355469 C 548.152344 291.882812 547.808594 292.328125 547.332031 292.480469 L 547.332031 330.832031 L 548.953125 329.890625 L 548.953125 294.09375 Z M 549.671875 294.09375 " fill-opacity="1" fill-rule="nonzero"/></g><g mask="url(#5aa08171d7)"><g transform="matrix(1, 0, 0, 1, 165, 237)"><g clip-path="url(#4beedd387e)"><path fill="#004aad" d="M 206.964844 119.960938 C 193.675781 114.269531 173.960938 120.660156 173.128906 120.9375 C 172.402344 121.175781 171.820312 121.71875 171.53125 122.425781 C 171.246094 123.132812 171.28125 123.929688 171.632812 124.609375 C 172.007812 125.324219 180.917969 142.226562 192.851562 146.273438 C 196.304688 147.4375 200.3125 147.855469 204.265625 147.855469 C 213.6875 147.855469 222.789062 145.496094 223.328125 145.355469 C 224 145.175781 224.574219 144.738281 224.921875 144.132812 C 225.269531 143.53125 225.359375 142.8125 225.171875 142.140625 C 224.988281 141.476562 220.488281 125.753906 206.964844 119.960938 Z M 194.519531 141.34375 C 187.171875 138.851562 180.757812 129.6875 177.871094 125 C 183.664062 123.523438 196.285156 121.050781 204.914062 124.746094 C 213.140625 128.265625 217.484375 136.679688 219.230469 140.953125 C 213.941406 142.050781 202.261719 143.960938 194.519531 141.34375 Z M 194.519531 141.34375 " fill-opacity="1" fill-rule="nonzero"/><g clip-path="url(#33fd99c89c)"><path fill="#004aad" d="M 318.394531 322.710938 L 261.867188 292.800781 C 258.640625 291.089844 256.777344 287.5 257.234375 283.859375 C 258.164062 276.332031 258.238281 270.023438 257.449219 265.109375 C 256.710938 260.507812 255.316406 255.984375 253.96875 251.613281 C 252.085938 245.519531 250.3125 239.761719 250.3125 234.117188 C 250.3125 229.53125 253.0625 219.085938 258.054688 204.703125 C 258.570312 203.207031 258.832031 201.65625 258.832031 200.101562 C 258.832031 194.054688 254.980469 188.695312 249.246094 186.765625 C 248.316406 186.453125 247.375 186.242188 246.425781 186.128906 C 248.796875 179.03125 250.726562 171.527344 252.210938 163.625 C 257.152344 137.339844 257.25 106.070312 252.507812 70.6875 C 252.4375 70.152344 252.199219 69.652344 251.832031 69.257812 C 241.535156 58.226562 228.691406 50.019531 213.652344 44.839844 C 198.957031 15.410156 173.027344 0.480469 136.550781 0.480469 C 109.34375 0.480469 87.824219 8.890625 72.597656 25.480469 C 45.785156 54.6875 43.765625 102.882812 46.792969 138.199219 C 49.570312 166.589844 55.601562 190.269531 63.34375 203.167969 C 69.386719 213.242188 82.9375 228.191406 101.554688 237.871094 L 101.554688 251.042969 C 101.554688 255.714844 98.394531 259.820312 93.875 261.03125 C 82.597656 264.046875 61.113281 270.679688 43.945312 281.191406 C 18.816406 296.582031 2.214844 323.242188 1.519531 324.367188 C 1.023438 325.171875 1.003906 326.183594 1.464844 327.007812 C 1.925781 327.828125 2.796875 328.335938 3.738281 328.335938 C 3.738281 328.335938 3.742188 328.335938 3.746094 328.335938 L 211.226562 327.613281 C 212.496094 327.609375 213.574219 326.691406 213.785156 325.4375 C 213.992188 324.183594 213.265625 322.964844 212.066406 322.550781 L 139.460938 297.507812 C 136.144531 296.363281 134.222656 292.804688 135.082031 289.398438 C 135.84375 286.363281 138.558594 284.242188 141.683594 284.242188 C 142.210938 284.242188 142.75 284.308594 143.28125 284.433594 C 143.285156 284.433594 143.289062 284.433594 143.289062 284.433594 L 143.332031 284.445312 C 143.335938 284.445312 143.335938 284.445312 143.339844 284.449219 C 143.34375 284.449219 143.347656 284.449219 143.351562 284.453125 L 192.09375 296.714844 C 192.308594 296.769531 192.519531 296.792969 192.730469 296.792969 C 193.894531 296.792969 194.957031 296.007812 195.253906 294.824219 C 195.605469 293.433594 194.757812 292.019531 193.363281 291.667969 L 144.636719 279.410156 C 144.628906 279.40625 144.621094 279.402344 144.609375 279.402344 C 144.609375 279.402344 144.605469 279.398438 144.601562 279.398438 L 136.9375 277.472656 C 135.273438 277.054688 133.867188 276.011719 132.988281 274.539062 C 132.105469 273.066406 131.851562 271.335938 132.269531 269.671875 C 132.992188 266.808594 135.554688 264.808594 138.503906 264.808594 C 138.871094 264.808594 139.261719 264.84375 139.660156 264.914062 C 139.683594 264.917969 139.710938 264.917969 139.738281 264.921875 L 196.5 279.203125 C 196.710938 279.253906 196.925781 279.28125 197.136719 279.28125 C 198.300781 279.28125 199.359375 278.492188 199.65625 277.3125 C 200.007812 275.921875 199.160156 274.507812 197.769531 274.15625 L 127.597656 256.5 C 124.160156 255.636719 122.066406 252.136719 122.929688 248.695312 C 123.285156 247.277344 124.085938 246.0625 125.257812 245.167969 C 126.796875 243.984375 128.894531 243.566406 130.734375 244.035156 L 200.902344 261.691406 C 202.296875 262.042969 203.710938 261.195312 204.058594 259.804688 C 204.410156 258.410156 203.566406 256.996094 202.171875 256.644531 L 140.984375 241.25 L 140.984375 241.246094 C 138.125 240.527344 136.128906 237.96875 136.128906 235.019531 C 136.128906 234.484375 136.191406 233.953125 136.324219 233.441406 C 136.636719 232.191406 137.3125 231.074219 138.28125 230.214844 C 139.871094 228.796875 142.058594 228.265625 144.125 228.78125 L 199 242.585938 C 203.953125 243.832031 209.136719 242.554688 212.867188 239.167969 C 226.785156 226.539062 237.410156 210.480469 244.617188 191.234375 C 245.613281 191.214844 246.605469 191.367188 247.582031 191.699219 C 251.199219 192.914062 253.628906 196.292969 253.628906 200.101562 C 253.628906 201.078125 253.460938 202.054688 253.132812 203 C 247.808594 218.347656 245.105469 228.816406 245.105469 234.117188 C 245.105469 240.546875 247.082031 246.953125 248.992188 253.148438 C 250.289062 257.347656 251.628906 261.691406 252.308594 265.9375 C 253.011719 270.304688 252.925781 276.28125 252.070312 283.21875 C 251.347656 288.984375 254.304688 294.683594 259.429688 297.402344 L 315.960938 327.3125 C 316.347656 327.515625 316.761719 327.613281 317.175781 327.613281 C 318.105469 327.613281 319.007812 327.109375 319.476562 326.230469 C 320.148438 324.957031 319.664062 323.382812 318.394531 322.710938 Z M 76.707031 114.878906 C 81.890625 113.347656 93.382812 110.484375 101.296875 112.453125 C 108.824219 114.320312 115.976562 122.929688 119.242188 127.359375 C 113.589844 129.308594 101.21875 132.820312 92.3125 129.851562 C 83.824219 127.019531 78.796875 118.996094 76.707031 114.878906 Z M 133.949219 211.652344 C 115.507812 210.972656 104.003906 202.945312 99.660156 187.734375 C 106.4375 192.59375 118.667969 199.539062 133.949219 200.261719 Z M 139.152344 183.800781 C 157.59375 184.480469 169.101562 192.507812 173.445312 207.71875 C 166.667969 202.859375 154.433594 195.917969 139.152344 195.191406 Z M 209.371094 235.3125 C 206.929688 237.527344 203.53125 238.359375 200.273438 237.539062 L 145.394531 223.734375 C 144.453125 223.5 143.5 223.382812 142.554688 223.382812 C 141.398438 223.382812 140.253906 223.554688 139.152344 223.890625 L 139.152344 200.40625 C 160.257812 201.539062 175.472656 216.023438 175.628906 216.175781 C 176.125 216.65625 176.78125 216.910156 177.441406 216.910156 C 177.839844 216.910156 178.242188 216.820312 178.613281 216.632812 C 179.601562 216.132812 180.167969 215.0625 180.023438 213.964844 C 177.039062 191.597656 162.925781 179.410156 139.152344 178.589844 L 139.152344 44.679688 C 165.25 41.710938 186.871094 42.691406 205.191406 47.671875 C 207.21875 48.226562 209.167969 48.8125 210.980469 49.421875 C 225.355469 54.207031 237.625 61.871094 247.460938 72.207031 C 252.019531 106.699219 251.894531 137.128906 247.097656 162.664062 C 241.328125 193.394531 228.632812 217.835938 209.371094 235.3125 Z M 209.371094 235.3125 " fill-opacity="1" fill-rule="nonzero"/></g></g></g></g><g fill="#ff0000" fill-opacity="1"><g transform="translate(18.64741, 310.788992)"><g><path d="M 27.484375 -80.140625 L 35.234375 -77.8125 C 32.390625 -70.332031 29.035156 -62.976562 25.171875 -55.75 L 25.171875 8.90625 L 17.421875 8.90625 L 17.421875 -43.359375 C 14.328125 -39.234375 11.101562 -35.363281 7.75 -31.75 L 3.875 -39.484375 C 14.96875 -52.390625 22.835938 -65.941406 27.484375 -80.140625 Z M 47.234375 -80.140625 L 54.59375 -77.8125 C 53.550781 -73.425781 52.257812 -69.296875 50.71875 -65.421875 L 92.921875 -65.421875 L 92.921875 -58.078125 C 90.597656 -52.910156 87.882812 -48.003906 84.78125 -43.359375 L 78.59375 -47.625 C 80.914062 -51.226562 82.847656 -54.710938 84.390625 -58.078125 L 48 -58.078125 C 45.675781 -51.617188 42.453125 -45.296875 38.328125 -39.109375 L 31.75 -44.140625 C 38.976562 -55.234375 44.140625 -67.234375 47.234375 -80.140625 Z M 60.78125 -51.109375 L 68.53125 -51.109375 L 68.53125 -0.390625 C 68.53125 3.222656 67.882812 5.738281 66.59375 7.15625 C 65.300781 8.582031 62.847656 9.296875 59.234375 9.296875 C 54.585938 9.296875 50.457031 9.035156 46.84375 8.515625 L 45.296875 0.78125 C 49.941406 1.550781 54.585938 1.9375 59.234375 1.9375 C 60.265625 1.9375 60.78125 0.773438 60.78125 -1.546875 Z M 83.234375 -38.328125 C 87.878906 -27.742188 90.976562 -16.90625 92.53125 -5.8125 L 84.390625 -3.484375 C 82.847656 -15.359375 80.007812 -26.328125 75.875 -36.390625 Z M 44.90625 -38.328125 L 52.265625 -36.390625 C 50.710938 -24.265625 46.582031 -13.035156 39.875 -2.703125 L 32.90625 -6.578125 C 39.363281 -17.160156 43.363281 -27.742188 44.90625 -38.328125 Z M 44.90625 -38.328125 "/></g></g></g><g fill="#ff0000" fill-opacity="1"><g transform="translate(128.350983, 310.788992)"><g><path d="M 18.96875 -78.203125 L 80.140625 -78.203125 L 80.140625 -42.96875 L 18.96875 -42.96875 Z M 26.328125 -63.875 L 72.78125 -63.875 L 72.78125 -71.234375 L 26.328125 -71.234375 Z M 26.328125 -49.9375 L 72.78125 -49.9375 L 72.78125 -57.6875 L 26.328125 -57.6875 Z M 6.578125 -37.546875 L 92.53125 -37.546875 L 92.53125 -30.578125 L 53.8125 -30.578125 L 53.8125 -20.515625 L 87.5 -20.515625 L 87.5 -13.546875 L 53.8125 -13.546875 L 53.8125 -1.546875 C 60.78125 -0.253906 69.941406 0.390625 81.296875 0.390625 L 94.46875 0.390625 L 91.75 8.125 L 81.296875 8.125 C 65.296875 8.125 53.101562 6.578125 44.71875 3.484375 C 36.332031 0.390625 29.816406 -3.867188 25.171875 -9.296875 C 21.035156 -2.066406 16 4 10.0625 8.90625 L 3.875 2.703125 C 14.96875 -6.066406 21.546875 -16.390625 23.609375 -28.265625 L 31.359375 -26.71875 C 30.835938 -23.101562 29.9375 -19.617188 28.65625 -16.265625 C 33.300781 -10.328125 39.109375 -6.195312 46.078125 -3.875 L 46.078125 -30.578125 L 6.578125 -30.578125 Z M 6.578125 -37.546875 "/></g></g></g><g fill="#ff0000" fill-opacity="1"><g transform="translate(238.054555, 310.788992)"><g><path d="M 20.125 -80.140625 L 27.484375 -77.8125 C 25.679688 -70.582031 23.359375 -63.484375 20.515625 -56.515625 L 20.515625 8.90625 L 13.15625 8.90625 L 13.15625 -40.65625 L 7.75 -31.75 L 3.875 -39.484375 C 11.351562 -52.390625 16.769531 -65.941406 20.125 -80.140625 Z M 59.625 -75.875 L 59.625 -45.296875 L 39.109375 -45.296875 L 39.109375 -34.453125 L 58.84375 -34.453125 L 58.84375 -27.484375 L 39.109375 -27.484375 L 39.109375 -16.640625 L 58.84375 -16.640625 L 58.84375 -9.671875 L 39.109375 -9.671875 L 39.109375 8.90625 L 31.75 8.90625 L 31.75 -75.875 Z M 39.109375 -52.265625 L 52.265625 -52.265625 L 52.265625 -68.90625 L 39.109375 -68.90625 Z M 63.875 -75.875 L 90.984375 -75.875 L 90.984375 -46.078125 L 63.875 -46.078125 L 63.875 -53.03125 L 82.84375 -53.03125 L 82.84375 -68.90625 L 63.875 -68.90625 Z M 63.875 -39.484375 L 92.921875 -39.484375 C 91.878906 -27.359375 88.394531 -16.648438 82.46875 -7.359375 C 85.820312 -4.003906 90.078125 -0.773438 95.234375 2.328125 L 90.203125 8.90625 C 85.554688 5.8125 81.425781 2.328125 77.8125 -1.546875 C 73.945312 2.578125 69.171875 6.0625 63.484375 8.90625 L 58.84375 1.9375 C 64.257812 -0.644531 68.90625 -3.742188 72.78125 -7.359375 C 68.90625 -12.515625 65.679688 -18.578125 63.109375 -25.546875 L 68.90625 -29.8125 C 71.226562 -23.351562 73.941406 -17.929688 77.046875 -13.546875 C 80.660156 -19.222656 83.109375 -25.546875 84.390625 -32.515625 L 63.875 -32.515625 Z M 63.875 -39.484375 "/></g></g></g><g fill="#ff0000" fill-opacity="1"><g transform="translate(347.758122, 310.788992)"><g><path d="M 8.515625 -71.625 L 25.546875 -71.625 C 24.515625 -74.207031 23.097656 -76.660156 21.296875 -78.984375 L 28.265625 -80.90625 C 30.328125 -78.070312 32.132812 -74.976562 33.6875 -71.625 L 51.109375 -71.625 L 51.109375 -65.046875 L 46.84375 -65.046875 C 44.78125 -59.109375 42.457031 -53.816406 39.875 -49.171875 L 51.875 -49.171875 L 51.875 -42.59375 L 32.90625 -42.59375 L 32.90625 -32.90625 L 49.171875 -32.90625 L 49.171875 -26.328125 L 32.90625 -26.328125 L 32.90625 -0.390625 C 32.90625 3.222656 32.257812 5.675781 30.96875 6.96875 C 29.675781 8.257812 27.097656 8.90625 23.234375 8.90625 C 20.648438 8.90625 18.328125 8.519531 16.265625 7.75 L 14.71875 0.390625 C 17.550781 1.421875 20.390625 1.9375 23.234375 1.9375 C 24.523438 1.9375 25.171875 0.773438 25.171875 -1.546875 L 25.171875 -26.328125 L 8.125 -26.328125 L 8.125 -32.90625 L 25.171875 -32.90625 L 25.171875 -42.59375 L 6.1875 -42.59375 L 6.1875 -49.171875 L 19.359375 -49.171875 C 18.066406 -54.847656 16.390625 -60.140625 14.328125 -65.046875 L 8.515625 -65.046875 Z M 26.328125 -49.171875 L 32.90625 -49.171875 C 34.96875 -54.066406 36.90625 -59.359375 38.71875 -65.046875 L 21.6875 -65.046875 C 23.488281 -60.140625 25.035156 -54.847656 26.328125 -49.171875 Z M 15.484375 -22.0625 L 21.6875 -18.96875 C 18.070312 -10.96875 14.066406 -4.90625 9.671875 -0.78125 L 4.265625 -5.421875 C 8.910156 -10.328125 12.648438 -15.875 15.484375 -22.0625 Z M 41.03125 -21.6875 C 44.644531 -17.550781 47.613281 -13.160156 49.9375 -8.515625 L 43.75 -5.03125 C 41.6875 -9.675781 38.847656 -14.066406 35.234375 -18.203125 Z M 89.8125 -78.59375 L 93.6875 -72.015625 C 85.164062 -69.691406 75.097656 -67.882812 63.484375 -66.59375 L 63.484375 -48.78125 L 94.078125 -48.78125 L 94.078125 -42.203125 L 84.78125 -42.203125 L 84.78125 7.75 L 77.8125 7.75 L 77.8125 -42.203125 L 63.484375 -42.203125 C 63.234375 -26.710938 62.269531 -15.675781 60.59375 -9.09375 C 58.914062 -2.507812 56.269531 3.359375 52.65625 8.515625 L 46.453125 3.484375 C 49.804688 -1.160156 52.257812 -6.898438 53.8125 -13.734375 C 55.363281 -20.578125 56.140625 -32.90625 56.140625 -50.71875 L 56.140625 -72.78125 C 70.078125 -74.070312 81.300781 -76.007812 89.8125 -78.59375 Z M 89.8125 -78.59375 "/></g></g></g><g fill="#ff0000" fill-opacity="1"><g transform="translate(457.461707, 310.788992)"><g><path d="M 45.296875 -77.8125 L 45.296875 -48.390625 L 15.09375 -48.390625 L 15.09375 8.90625 L 8.125 8.90625 L 8.125 -77.8125 Z M 15.09375 -66.203125 L 37.546875 -66.203125 L 37.546875 -71.625 L 15.09375 -71.625 Z M 15.09375 -54.59375 L 37.546875 -54.59375 L 37.546875 -60.390625 L 15.09375 -60.390625 Z M 91.75 -77.8125 L 91.75 0 C 91.75 3.09375 91.039062 5.414062 89.625 6.96875 C 88.207031 8.519531 86.078125 9.296875 83.234375 9.296875 C 82.203125 9.296875 80.910156 9.164062 79.359375 8.90625 L 77.8125 2.328125 C 79.363281 2.578125 80.65625 2.703125 81.6875 2.703125 C 83.488281 2.703125 84.390625 1.15625 84.390625 -1.9375 L 84.390625 -48.390625 L 53.421875 -48.390625 L 53.421875 -77.8125 Z M 60.78125 -66.203125 L 84.390625 -66.203125 L 84.390625 -71.625 L 60.78125 -71.625 Z M 84.390625 -54.59375 L 84.390625 -60.390625 L 60.78125 -60.390625 L 60.78125 -54.59375 Z M 21.296875 -43.75 L 78.203125 -43.75 L 78.203125 -37.171875 L 70.078125 -37.171875 L 70.078125 -12.78125 C 73.171875 -13.03125 76.007812 -13.414062 78.59375 -13.9375 L 79.75 -6.96875 L 70.078125 -5.8125 L 70.078125 3.09375 L 62.71875 3.09375 L 62.71875 -5.03125 C 49.8125 -3.476562 36.003906 -2.1875 21.296875 -1.15625 L 20.125 -8.125 C 22.707031 -8.125 25.421875 -8.253906 28.265625 -8.515625 L 28.265625 -37.171875 L 21.296875 -37.171875 Z M 35.625 -32.140625 L 62.71875 -32.140625 L 62.71875 -37.171875 L 35.625 -37.171875 Z M 35.625 -21.6875 L 62.71875 -21.6875 L 62.71875 -26.328125 L 35.625 -26.328125 Z M 35.625 -9.296875 C 45.6875 -10.066406 54.71875 -10.835938 62.71875 -11.609375 L 62.71875 -15.484375 L 35.625 -15.484375 Z M 35.625 -9.296875 "/></g></g></g><g fill="#00ffff" fill-opacity="1"><g transform="translate(28.483851, 309.581221)"><g><path d="M 27.484375 -80.140625 L 35.234375 -77.8125 C 32.390625 -70.332031 29.035156 -62.976562 25.171875 -55.75 L 25.171875 8.90625 L 17.421875 8.90625 L 17.421875 -43.359375 C 14.328125 -39.234375 11.101562 -35.363281 7.75 -31.75 L 3.875 -39.484375 C 14.96875 -52.390625 22.835938 -65.941406 27.484375 -80.140625 Z M 47.234375 -80.140625 L 54.59375 -77.8125 C 53.550781 -73.425781 52.257812 -69.296875 50.71875 -65.421875 L 92.921875 -65.421875 L 92.921875 -58.078125 C 90.597656 -52.910156 87.882812 -48.003906 84.78125 -43.359375 L 78.59375 -47.625 C 80.914062 -51.226562 82.847656 -54.710938 84.390625 -58.078125 L 48 -58.078125 C 45.675781 -51.617188 42.453125 -45.296875 38.328125 -39.109375 L 31.75 -44.140625 C 38.976562 -55.234375 44.140625 -67.234375 47.234375 -80.140625 Z M 60.78125 -51.109375 L 68.53125 -51.109375 L 68.53125 -0.390625 C 68.53125 3.222656 67.882812 5.738281 66.59375 7.15625 C 65.300781 8.582031 62.847656 9.296875 59.234375 9.296875 C 54.585938 9.296875 50.457031 9.035156 46.84375 8.515625 L 45.296875 0.78125 C 49.941406 1.550781 54.585938 1.9375 59.234375 1.9375 C 60.265625 1.9375 60.78125 0.773438 60.78125 -1.546875 Z M 83.234375 -38.328125 C 87.878906 -27.742188 90.976562 -16.90625 92.53125 -5.8125 L 84.390625 -3.484375 C 82.847656 -15.359375 80.007812 -26.328125 75.875 -36.390625 Z M 44.90625 -38.328125 L 52.265625 -36.390625 C 50.710938 -24.265625 46.582031 -13.035156 39.875 -2.703125 L 32.90625 -6.578125 C 39.363281 -17.160156 43.363281 -27.742188 44.90625 -38.328125 Z M 44.90625 -38.328125 "/></g></g></g><g fill="#00ffff" fill-opacity="1"><g transform="translate(138.187424, 309.581221)"><g><path d="M 18.96875 -78.203125 L 80.140625 -78.203125 L 80.140625 -42.96875 L 18.96875 -42.96875 Z M 26.328125 -63.875 L 72.78125 -63.875 L 72.78125 -71.234375 L 26.328125 -71.234375 Z M 26.328125 -49.9375 L 72.78125 -49.9375 L 72.78125 -57.6875 L 26.328125 -57.6875 Z M 6.578125 -37.546875 L 92.53125 -37.546875 L 92.53125 -30.578125 L 53.8125 -30.578125 L 53.8125 -20.515625 L 87.5 -20.515625 L 87.5 -13.546875 L 53.8125 -13.546875 L 53.8125 -1.546875 C 60.78125 -0.253906 69.941406 0.390625 81.296875 0.390625 L 94.46875 0.390625 L 91.75 8.125 L 81.296875 8.125 C 65.296875 8.125 53.101562 6.578125 44.71875 3.484375 C 36.332031 0.390625 29.816406 -3.867188 25.171875 -9.296875 C 21.035156 -2.066406 16 4 10.0625 8.90625 L 3.875 2.703125 C 14.96875 -6.066406 21.546875 -16.390625 23.609375 -28.265625 L 31.359375 -26.71875 C 30.835938 -23.101562 29.9375 -19.617188 28.65625 -16.265625 C 33.300781 -10.328125 39.109375 -6.195312 46.078125 -3.875 L 46.078125 -30.578125 L 6.578125 -30.578125 Z M 6.578125 -37.546875 "/></g></g></g><g fill="#00ffff" fill-opacity="1"><g transform="translate(247.890997, 309.581221)"><g><path d="M 20.125 -80.140625 L 27.484375 -77.8125 C 25.679688 -70.582031 23.359375 -63.484375 20.515625 -56.515625 L 20.515625 8.90625 L 13.15625 8.90625 L 13.15625 -40.65625 L 7.75 -31.75 L 3.875 -39.484375 C 11.351562 -52.390625 16.769531 -65.941406 20.125 -80.140625 Z M 59.625 -75.875 L 59.625 -45.296875 L 39.109375 -45.296875 L 39.109375 -34.453125 L 58.84375 -34.453125 L 58.84375 -27.484375 L 39.109375 -27.484375 L 39.109375 -16.640625 L 58.84375 -16.640625 L 58.84375 -9.671875 L 39.109375 -9.671875 L 39.109375 8.90625 L 31.75 8.90625 L 31.75 -75.875 Z M 39.109375 -52.265625 L 52.265625 -52.265625 L 52.265625 -68.90625 L 39.109375 -68.90625 Z M 63.875 -75.875 L 90.984375 -75.875 L 90.984375 -46.078125 L 63.875 -46.078125 L 63.875 -53.03125 L 82.84375 -53.03125 L 82.84375 -68.90625 L 63.875 -68.90625 Z M 63.875 -39.484375 L 92.921875 -39.484375 C 91.878906 -27.359375 88.394531 -16.648438 82.46875 -7.359375 C 85.820312 -4.003906 90.078125 -0.773438 95.234375 2.328125 L 90.203125 8.90625 C 85.554688 5.8125 81.425781 2.328125 77.8125 -1.546875 C 73.945312 2.578125 69.171875 6.0625 63.484375 8.90625 L 58.84375 1.9375 C 64.257812 -0.644531 68.90625 -3.742188 72.78125 -7.359375 C 68.90625 -12.515625 65.679688 -18.578125 63.109375 -25.546875 L 68.90625 -29.8125 C 71.226562 -23.351562 73.941406 -17.929688 77.046875 -13.546875 C 80.660156 -19.222656 83.109375 -25.546875 84.390625 -32.515625 L 63.875 -32.515625 Z M 63.875 -39.484375 "/></g></g></g><g fill="#00ffff" fill-opacity="1"><g transform="translate(357.594563, 309.581221)"><g><path d="M 8.515625 -71.625 L 25.546875 -71.625 C 24.515625 -74.207031 23.097656 -76.660156 21.296875 -78.984375 L 28.265625 -80.90625 C 30.328125 -78.070312 32.132812 -74.976562 33.6875 -71.625 L 51.109375 -71.625 L 51.109375 -65.046875 L 46.84375 -65.046875 C 44.78125 -59.109375 42.457031 -53.816406 39.875 -49.171875 L 51.875 -49.171875 L 51.875 -42.59375 L 32.90625 -42.59375 L 32.90625 -32.90625 L 49.171875 -32.90625 L 49.171875 -26.328125 L 32.90625 -26.328125 L 32.90625 -0.390625 C 32.90625 3.222656 32.257812 5.675781 30.96875 6.96875 C 29.675781 8.257812 27.097656 8.90625 23.234375 8.90625 C 20.648438 8.90625 18.328125 8.519531 16.265625 7.75 L 14.71875 0.390625 C 17.550781 1.421875 20.390625 1.9375 23.234375 1.9375 C 24.523438 1.9375 25.171875 0.773438 25.171875 -1.546875 L 25.171875 -26.328125 L 8.125 -26.328125 L 8.125 -32.90625 L 25.171875 -32.90625 L 25.171875 -42.59375 L 6.1875 -42.59375 L 6.1875 -49.171875 L 19.359375 -49.171875 C 18.066406 -54.847656 16.390625 -60.140625 14.328125 -65.046875 L 8.515625 -65.046875 Z M 26.328125 -49.171875 L 32.90625 -49.171875 C 34.96875 -54.066406 36.90625 -59.359375 38.71875 -65.046875 L 21.6875 -65.046875 C 23.488281 -60.140625 25.035156 -54.847656 26.328125 -49.171875 Z M 15.484375 -22.0625 L 21.6875 -18.96875 C 18.070312 -10.96875 14.066406 -4.90625 9.671875 -0.78125 L 4.265625 -5.421875 C 8.910156 -10.328125 12.648438 -15.875 15.484375 -22.0625 Z M 41.03125 -21.6875 C 44.644531 -17.550781 47.613281 -13.160156 49.9375 -8.515625 L 43.75 -5.03125 C 41.6875 -9.675781 38.847656 -14.066406 35.234375 -18.203125 Z M 89.8125 -78.59375 L 93.6875 -72.015625 C 85.164062 -69.691406 75.097656 -67.882812 63.484375 -66.59375 L 63.484375 -48.78125 L 94.078125 -48.78125 L 94.078125 -42.203125 L 84.78125 -42.203125 L 84.78125 7.75 L 77.8125 7.75 L 77.8125 -42.203125 L 63.484375 -42.203125 C 63.234375 -26.710938 62.269531 -15.675781 60.59375 -9.09375 C 58.914062 -2.507812 56.269531 3.359375 52.65625 8.515625 L 46.453125 3.484375 C 49.804688 -1.160156 52.257812 -6.898438 53.8125 -13.734375 C 55.363281 -20.578125 56.140625 -32.90625 56.140625 -50.71875 L 56.140625 -72.78125 C 70.078125 -74.070312 81.300781 -76.007812 89.8125 -78.59375 Z M 89.8125 -78.59375 "/></g></g></g><g fill="#00ffff" fill-opacity="1"><g transform="translate(467.298148, 309.581221)"><g><path d="M 45.296875 -77.8125 L 45.296875 -48.390625 L 15.09375 -48.390625 L 15.09375 8.90625 L 8.125 8.90625 L 8.125 -77.8125 Z M 15.09375 -66.203125 L 37.546875 -66.203125 L 37.546875 -71.625 L 15.09375 -71.625 Z M 15.09375 -54.59375 L 37.546875 -54.59375 L 37.546875 -60.390625 L 15.09375 -60.390625 Z M 91.75 -77.8125 L 91.75 0 C 91.75 3.09375 91.039062 5.414062 89.625 6.96875 C 88.207031 8.519531 86.078125 9.296875 83.234375 9.296875 C 82.203125 9.296875 80.910156 9.164062 79.359375 8.90625 L 77.8125 2.328125 C 79.363281 2.578125 80.65625 2.703125 81.6875 2.703125 C 83.488281 2.703125 84.390625 1.15625 84.390625 -1.9375 L 84.390625 -48.390625 L 53.421875 -48.390625 L 53.421875 -77.8125 Z M 60.78125 -66.203125 L 84.390625 -66.203125 L 84.390625 -71.625 L 60.78125 -71.625 Z M 84.390625 -54.59375 L 84.390625 -60.390625 L 60.78125 -60.390625 L 60.78125 -54.59375 Z M 21.296875 -43.75 L 78.203125 -43.75 L 78.203125 -37.171875 L 70.078125 -37.171875 L 70.078125 -12.78125 C 73.171875 -13.03125 76.007812 -13.414062 78.59375 -13.9375 L 79.75 -6.96875 L 70.078125 -5.8125 L 70.078125 3.09375 L 62.71875 3.09375 L 62.71875 -5.03125 C 49.8125 -3.476562 36.003906 -2.1875 21.296875 -1.15625 L 20.125 -8.125 C 22.707031 -8.125 25.421875 -8.253906 28.265625 -8.515625 L 28.265625 -37.171875 L 21.296875 -37.171875 Z M 35.625 -32.140625 L 62.71875 -32.140625 L 62.71875 -37.171875 L 35.625 -37.171875 Z M 35.625 -21.6875 L 62.71875 -21.6875 L 62.71875 -26.328125 L 35.625 -26.328125 Z M 35.625 -9.296875 C 45.6875 -10.066406 54.71875 -10.835938 62.71875 -11.609375 L 62.71875 -15.484375 L 35.625 -15.484375 Z M 35.625 -9.296875 "/></g></g></g><g fill="#2bf6ff" fill-opacity="1"><g transform="translate(23.565631, 310.185107)"><g><path d="M 27.484375 -80.140625 L 35.234375 -77.8125 C 32.390625 -70.332031 29.035156 -62.976562 25.171875 -55.75 L 25.171875 8.90625 L 17.421875 8.90625 L 17.421875 -43.359375 C 14.328125 -39.234375 11.101562 -35.363281 7.75 -31.75 L 3.875 -39.484375 C 14.96875 -52.390625 22.835938 -65.941406 27.484375 -80.140625 Z M 47.234375 -80.140625 L 54.59375 -77.8125 C 53.550781 -73.425781 52.257812 -69.296875 50.71875 -65.421875 L 92.921875 -65.421875 L 92.921875 -58.078125 C 90.597656 -52.910156 87.882812 -48.003906 84.78125 -43.359375 L 78.59375 -47.625 C 80.914062 -51.226562 82.847656 -54.710938 84.390625 -58.078125 L 48 -58.078125 C 45.675781 -51.617188 42.453125 -45.296875 38.328125 -39.109375 L 31.75 -44.140625 C 38.976562 -55.234375 44.140625 -67.234375 47.234375 -80.140625 Z M 60.78125 -51.109375 L 68.53125 -51.109375 L 68.53125 -0.390625 C 68.53125 3.222656 67.882812 5.738281 66.59375 7.15625 C 65.300781 8.582031 62.847656 9.296875 59.234375 9.296875 C 54.585938 9.296875 50.457031 9.035156 46.84375 8.515625 L 45.296875 0.78125 C 49.941406 1.550781 54.585938 1.9375 59.234375 1.9375 C 60.265625 1.9375 60.78125 0.773438 60.78125 -1.546875 Z M 83.234375 -38.328125 C 87.878906 -27.742188 90.976562 -16.90625 92.53125 -5.8125 L 84.390625 -3.484375 C 82.847656 -15.359375 80.007812 -26.328125 75.875 -36.390625 Z M 44.90625 -38.328125 L 52.265625 -36.390625 C 50.710938 -24.265625 46.582031 -13.035156 39.875 -2.703125 L 32.90625 -6.578125 C 39.363281 -17.160156 43.363281 -27.742188 44.90625 -38.328125 Z M 44.90625 -38.328125 "/></g></g></g><g fill="#2bf6ff" fill-opacity="1"><g transform="translate(133.269203, 310.185107)"><g><path d="M 18.96875 -78.203125 L 80.140625 -78.203125 L 80.140625 -42.96875 L 18.96875 -42.96875 Z M 26.328125 -63.875 L 72.78125 -63.875 L 72.78125 -71.234375 L 26.328125 -71.234375 Z M 26.328125 -49.9375 L 72.78125 -49.9375 L 72.78125 -57.6875 L 26.328125 -57.6875 Z M 6.578125 -37.546875 L 92.53125 -37.546875 L 92.53125 -30.578125 L 53.8125 -30.578125 L 53.8125 -20.515625 L 87.5 -20.515625 L 87.5 -13.546875 L 53.8125 -13.546875 L 53.8125 -1.546875 C 60.78125 -0.253906 69.941406 0.390625 81.296875 0.390625 L 94.46875 0.390625 L 91.75 8.125 L 81.296875 8.125 C 65.296875 8.125 53.101562 6.578125 44.71875 3.484375 C 36.332031 0.390625 29.816406 -3.867188 25.171875 -9.296875 C 21.035156 -2.066406 16 4 10.0625 8.90625 L 3.875 2.703125 C 14.96875 -6.066406 21.546875 -16.390625 23.609375 -28.265625 L 31.359375 -26.71875 C 30.835938 -23.101562 29.9375 -19.617188 28.65625 -16.265625 C 33.300781 -10.328125 39.109375 -6.195312 46.078125 -3.875 L 46.078125 -30.578125 L 6.578125 -30.578125 Z M 6.578125 -37.546875 "/></g></g></g><g fill="#2bf6ff" fill-opacity="1"><g transform="translate(242.972776, 310.185107)"><g><path d="M 20.125 -80.140625 L 27.484375 -77.8125 C 25.679688 -70.582031 23.359375 -63.484375 20.515625 -56.515625 L 20.515625 8.90625 L 13.15625 8.90625 L 13.15625 -40.65625 L 7.75 -31.75 L 3.875 -39.484375 C 11.351562 -52.390625 16.769531 -65.941406 20.125 -80.140625 Z M 59.625 -75.875 L 59.625 -45.296875 L 39.109375 -45.296875 L 39.109375 -34.453125 L 58.84375 -34.453125 L 58.84375 -27.484375 L 39.109375 -27.484375 L 39.109375 -16.640625 L 58.84375 -16.640625 L 58.84375 -9.671875 L 39.109375 -9.671875 L 39.109375 8.90625 L 31.75 8.90625 L 31.75 -75.875 Z M 39.109375 -52.265625 L 52.265625 -52.265625 L 52.265625 -68.90625 L 39.109375 -68.90625 Z M 63.875 -75.875 L 90.984375 -75.875 L 90.984375 -46.078125 L 63.875 -46.078125 L 63.875 -53.03125 L 82.84375 -53.03125 L 82.84375 -68.90625 L 63.875 -68.90625 Z M 63.875 -39.484375 L 92.921875 -39.484375 C 91.878906 -27.359375 88.394531 -16.648438 82.46875 -7.359375 C 85.820312 -4.003906 90.078125 -0.773438 95.234375 2.328125 L 90.203125 8.90625 C 85.554688 5.8125 81.425781 2.328125 77.8125 -1.546875 C 73.945312 2.578125 69.171875 6.0625 63.484375 8.90625 L 58.84375 1.9375 C 64.257812 -0.644531 68.90625 -3.742188 72.78125 -7.359375 C 68.90625 -12.515625 65.679688 -18.578125 63.109375 -25.546875 L 68.90625 -29.8125 C 71.226562 -23.351562 73.941406 -17.929688 77.046875 -13.546875 C 80.660156 -19.222656 83.109375 -25.546875 84.390625 -32.515625 L 63.875 -32.515625 Z M 63.875 -39.484375 "/></g></g></g><g fill="#2bf6ff" fill-opacity="1"><g transform="translate(352.676343, 310.185107)"><g><path d="M 8.515625 -71.625 L 25.546875 -71.625 C 24.515625 -74.207031 23.097656 -76.660156 21.296875 -78.984375 L 28.265625 -80.90625 C 30.328125 -78.070312 32.132812 -74.976562 33.6875 -71.625 L 51.109375 -71.625 L 51.109375 -65.046875 L 46.84375 -65.046875 C 44.78125 -59.109375 42.457031 -53.816406 39.875 -49.171875 L 51.875 -49.171875 L 51.875 -42.59375 L 32.90625 -42.59375 L 32.90625 -32.90625 L 49.171875 -32.90625 L 49.171875 -26.328125 L 32.90625 -26.328125 L 32.90625 -0.390625 C 32.90625 3.222656 32.257812 5.675781 30.96875 6.96875 C 29.675781 8.257812 27.097656 8.90625 23.234375 8.90625 C 20.648438 8.90625 18.328125 8.519531 16.265625 7.75 L 14.71875 0.390625 C 17.550781 1.421875 20.390625 1.9375 23.234375 1.9375 C 24.523438 1.9375 25.171875 0.773438 25.171875 -1.546875 L 25.171875 -26.328125 L 8.125 -26.328125 L 8.125 -32.90625 L 25.171875 -32.90625 L 25.171875 -42.59375 L 6.1875 -42.59375 L 6.1875 -49.171875 L 19.359375 -49.171875 C 18.066406 -54.847656 16.390625 -60.140625 14.328125 -65.046875 L 8.515625 -65.046875 Z M 26.328125 -49.171875 L 32.90625 -49.171875 C 34.96875 -54.066406 36.90625 -59.359375 38.71875 -65.046875 L 21.6875 -65.046875 C 23.488281 -60.140625 25.035156 -54.847656 26.328125 -49.171875 Z M 15.484375 -22.0625 L 21.6875 -18.96875 C 18.070312 -10.96875 14.066406 -4.90625 9.671875 -0.78125 L 4.265625 -5.421875 C 8.910156 -10.328125 12.648438 -15.875 15.484375 -22.0625 Z M 41.03125 -21.6875 C 44.644531 -17.550781 47.613281 -13.160156 49.9375 -8.515625 L 43.75 -5.03125 C 41.6875 -9.675781 38.847656 -14.066406 35.234375 -18.203125 Z M 89.8125 -78.59375 L 93.6875 -72.015625 C 85.164062 -69.691406 75.097656 -67.882812 63.484375 -66.59375 L 63.484375 -48.78125 L 94.078125 -48.78125 L 94.078125 -42.203125 L 84.78125 -42.203125 L 84.78125 7.75 L 77.8125 7.75 L 77.8125 -42.203125 L 63.484375 -42.203125 C 63.234375 -26.710938 62.269531 -15.675781 60.59375 -9.09375 C 58.914062 -2.507812 56.269531 3.359375 52.65625 8.515625 L 46.453125 3.484375 C 49.804688 -1.160156 52.257812 -6.898438 53.8125 -13.734375 C 55.363281 -20.578125 56.140625 -32.90625 56.140625 -50.71875 L 56.140625 -72.78125 C 70.078125 -74.070312 81.300781 -76.007812 89.8125 -78.59375 Z M 89.8125 -78.59375 "/></g></g></g><g fill="#2bf6ff" fill-opacity="1"><g transform="translate(462.379927, 310.185107)"><g><path d="M 45.296875 -77.8125 L 45.296875 -48.390625 L 15.09375 -48.390625 L 15.09375 8.90625 L 8.125 8.90625 L 8.125 -77.8125 Z M 15.09375 -66.203125 L 37.546875 -66.203125 L 37.546875 -71.625 L 15.09375 -71.625 Z M 15.09375 -54.59375 L 37.546875 -54.59375 L 37.546875 -60.390625 L 15.09375 -60.390625 Z M 91.75 -77.8125 L 91.75 0 C 91.75 3.09375 91.039062 5.414062 89.625 6.96875 C 88.207031 8.519531 86.078125 9.296875 83.234375 9.296875 C 82.203125 9.296875 80.910156 9.164062 79.359375 8.90625 L 77.8125 2.328125 C 79.363281 2.578125 80.65625 2.703125 81.6875 2.703125 C 83.488281 2.703125 84.390625 1.15625 84.390625 -1.9375 L 84.390625 -48.390625 L 53.421875 -48.390625 L 53.421875 -77.8125 Z M 60.78125 -66.203125 L 84.390625 -66.203125 L 84.390625 -71.625 L 60.78125 -71.625 Z M 84.390625 -54.59375 L 84.390625 -60.390625 L 60.78125 -60.390625 L 60.78125 -54.59375 Z M 21.296875 -43.75 L 78.203125 -43.75 L 78.203125 -37.171875 L 70.078125 -37.171875 L 70.078125 -12.78125 C 73.171875 -13.03125 76.007812 -13.414062 78.59375 -13.9375 L 79.75 -6.96875 L 70.078125 -5.8125 L 70.078125 3.09375 L 62.71875 3.09375 L 62.71875 -5.03125 C 49.8125 -3.476562 36.003906 -2.1875 21.296875 -1.15625 L 20.125 -8.125 C 22.707031 -8.125 25.421875 -8.253906 28.265625 -8.515625 L 28.265625 -37.171875 L 21.296875 -37.171875 Z M 35.625 -32.140625 L 62.71875 -32.140625 L 62.71875 -37.171875 L 35.625 -37.171875 Z M 35.625 -21.6875 L 62.71875 -21.6875 L 62.71875 -26.328125 L 35.625 -26.328125 Z M 35.625 -9.296875 C 45.6875 -10.066406 54.71875 -10.835938 62.71875 -11.609375 L 62.71875 -15.484375 L 35.625 -15.484375 Z M 35.625 -9.296875 "/></g></g></g><g fill="#ff0000" fill-opacity="1"><g transform="translate(73.503431, 488.023285)"><g><path d="M 27.09375 -7.359375 C 21.675781 -5.296875 15.351562 -3.488281 8.125 -1.9375 L 5.03125 -8.90625 C 20 -11.738281 31.359375 -15.609375 39.109375 -20.515625 L 6.96875 -20.515625 L 6.96875 -27.484375 L 46.84375 -27.484375 C 46.070312 -29.035156 45.171875 -30.328125 44.140625 -31.359375 L 51.484375 -33.6875 C 53.035156 -31.875 54.328125 -29.804688 55.359375 -27.484375 L 92.140625 -27.484375 L 92.140625 -20.515625 L 54.203125 -20.515625 C 57.035156 -16.128906 60.519531 -12.390625 64.65625 -9.296875 C 68.78125 -12.128906 72.265625 -15.097656 75.109375 -18.203125 L 82.078125 -14.328125 C 78.460938 -10.710938 74.71875 -7.742188 70.84375 -5.421875 C 76.519531 -2.066406 84.132812 0 93.6875 0.78125 L 91.75 7.75 C 72.132812 6.96875 57.425781 -1.804688 47.625 -18.578125 C 44.519531 -16.003906 40.257812 -13.296875 34.84375 -10.453125 L 34.84375 1.15625 C 40.519531 -0.132812 45.679688 -1.550781 50.328125 -3.09375 L 52.265625 3.09375 C 44.773438 5.414062 37.675781 7.351562 30.96875 8.90625 L 27.09375 5.03125 Z M 14.71875 -80.53125 L 20.90625 -78.59375 C 20.644531 -77.5625 20.128906 -76.398438 19.359375 -75.109375 L 29.421875 -75.109375 L 29.421875 -80.90625 L 37.171875 -80.90625 L 37.171875 -75.109375 L 55.75 -75.109375 L 55.75 -68.90625 L 37.171875 -68.90625 L 37.171875 -62.328125 L 59.625 -62.328125 L 59.625 -55.75 L 37.171875 -55.75 L 37.171875 -51.484375 L 57.296875 -51.484375 L 57.296875 -41.03125 C 57.296875 -38.707031 56.582031 -36.960938 55.15625 -35.796875 C 53.738281 -34.640625 51.613281 -34.0625 48.78125 -34.0625 C 47.226562 -34.0625 45.550781 -34.320312 43.75 -34.84375 L 42.203125 -40.265625 C 45.035156 -40.003906 47.097656 -39.875 48.390625 -39.875 C 49.421875 -39.875 49.9375 -40.78125 49.9375 -42.59375 L 49.9375 -45.296875 L 37.171875 -45.296875 L 37.171875 -30.578125 L 29.421875 -30.578125 L 29.421875 -45.296875 L 17.421875 -45.296875 L 17.421875 -32.515625 L 10.0625 -32.515625 L 10.0625 -51.484375 L 29.421875 -51.484375 L 29.421875 -55.75 L 5.421875 -55.75 L 5.421875 -62.328125 L 29.421875 -62.328125 L 29.421875 -68.90625 L 15.875 -68.90625 C 14.582031 -66.582031 13.035156 -64.648438 11.234375 -63.109375 L 6.1875 -67.359375 C 10.320312 -71.742188 13.164062 -76.132812 14.71875 -80.53125 Z M 82.078125 -80.140625 L 89.046875 -80.140625 L 89.046875 -39.109375 C 89.046875 -36.003906 88.398438 -33.804688 87.109375 -32.515625 C 85.816406 -31.222656 83.109375 -30.578125 78.984375 -30.578125 C 76.140625 -30.578125 73.425781 -30.96875 70.84375 -31.75 L 69.6875 -38.71875 C 72.78125 -37.6875 75.878906 -37.171875 78.984375 -37.171875 C 81.046875 -37.171875 82.078125 -38.203125 82.078125 -40.265625 Z M 65.8125 -74.328125 L 72.78125 -74.328125 L 72.78125 -45.296875 L 65.8125 -45.296875 Z M 65.8125 -74.328125 "/></g></g></g><g fill="#ff0000" fill-opacity="1"><g transform="translate(183.207004, 488.023285)"><g><path d="M 11.609375 -77.8125 C 16.773438 -74.457031 21.421875 -70.457031 25.546875 -65.8125 L 20.125 -59.234375 C 15.738281 -64.390625 11.09375 -68.648438 6.1875 -72.015625 Z M 5.03125 -45.6875 L 24.390625 -45.6875 L 24.390625 -8.515625 C 27.484375 -6.191406 31.414062 -4.515625 36.1875 -3.484375 C 40.96875 -2.453125 51.359375 -1.9375 67.359375 -1.9375 L 94.46875 -1.9375 L 90.59375 6.578125 L 59.625 6.578125 C 48.269531 6.578125 40.007812 5.800781 34.84375 4.25 C 29.675781 2.707031 25.160156 0.257812 21.296875 -3.09375 L 10.0625 8.125 L 4.640625 0 C 8.773438 -2.320312 12.773438 -4.773438 16.640625 -7.359375 L 16.640625 -38.328125 L 5.03125 -38.328125 Z M 44.90625 -78.984375 L 51.484375 -77.046875 L 48.390625 -69.6875 L 58.84375 -69.6875 L 58.84375 -80.140625 L 66.203125 -80.140625 L 66.203125 -69.6875 L 87.875 -69.6875 L 87.875 -62.71875 L 66.203125 -62.71875 L 66.203125 -50.71875 L 93.296875 -50.71875 L 93.296875 -43.75 L 29.421875 -43.75 L 29.421875 -50.71875 L 58.84375 -50.71875 L 58.84375 -62.71875 L 44.90625 -62.71875 C 42.582031 -58.84375 40.003906 -55.488281 37.171875 -52.65625 L 31.359375 -56.90625 C 37.554688 -63.613281 42.070312 -70.972656 44.90625 -78.984375 Z M 37.9375 -36.390625 L 86.71875 -36.390625 L 86.71875 -10.0625 L 37.9375 -10.0625 Z M 45.296875 -17.03125 L 79.359375 -17.03125 L 79.359375 -29.8125 L 45.296875 -29.8125 Z M 45.296875 -17.03125 "/></g></g></g><g fill="#ff0000" fill-opacity="1"><g transform="translate(292.910576, 488.023285)"><g><path d="M 8.515625 -57.296875 L 44.515625 -57.296875 L 44.515625 -79.75 L 53.03125 -79.75 L 53.03125 -57.296875 L 90.984375 -57.296875 L 90.984375 -49.5625 L 54.59375 -49.5625 C 61.5625 -25.039062 75.109375 -8.390625 95.234375 0.390625 L 90.984375 8.90625 C 72.648438 0.382812 59.226562 -15.097656 50.71875 -37.546875 C 45.039062 -18.710938 30.972656 -3.226562 8.515625 8.90625 L 4.265625 1.546875 C 29.296875 -12.648438 42.585938 -29.6875 44.140625 -49.5625 L 8.515625 -49.5625 Z M 8.515625 -57.296875 "/></g></g></g><g fill="#ff0000" fill-opacity="1"><g transform="translate(402.614143, 488.023285)"><g><path d="M 44.140625 -74.71875 L 93.6875 -74.71875 L 93.6875 -67.75 L 72.78125 -67.75 L 72.78125 -54.59375 L 90.984375 -54.59375 L 90.984375 -13.9375 C 90.984375 -10.84375 90.144531 -8.457031 88.46875 -6.78125 C 86.789062 -5.101562 84.269531 -4.265625 80.90625 -4.265625 C 79.363281 -4.265625 77.5625 -4.519531 75.5 -5.03125 L 73.5625 -12.78125 C 76.65625 -12.257812 78.976562 -12 80.53125 -12 C 82.59375 -12 83.625 -13.289062 83.625 -15.875 L 83.625 -47.625 L 72.78125 -47.625 L 72.78125 8.90625 L 65.8125 8.90625 L 65.8125 -47.625 L 54.59375 -47.625 L 54.59375 -3.875 L 47.234375 -3.875 L 47.234375 -54.59375 L 65.8125 -54.59375 L 65.8125 -67.75 L 44.140625 -67.75 Z M 19.359375 -80.53125 L 27.875 -78.59375 C 27.101562 -75.75 26.203125 -73.035156 25.171875 -70.453125 L 39.484375 -70.453125 L 39.484375 -40.65625 L 15.09375 -40.65625 L 15.09375 -32.140625 L 40.65625 -32.140625 L 40.65625 5.421875 L 32.90625 5.421875 L 32.90625 -1.546875 L 15.09375 -1.546875 L 15.09375 8.90625 L 8.125 8.90625 L 8.125 -70.453125 L 16.640625 -70.453125 C 17.929688 -73.816406 18.835938 -77.175781 19.359375 -80.53125 Z M 15.09375 -47.625 L 32.515625 -47.625 L 32.515625 -63.484375 L 15.09375 -63.484375 Z M 15.09375 -25.171875 L 15.09375 -8.515625 L 32.90625 -8.515625 L 32.90625 -25.171875 Z M 15.09375 -25.171875 "/></g></g></g><g fill="#00ffff" fill-opacity="1"><g transform="translate(83.339872, 486.815514)"><g><path d="M 27.09375 -7.359375 C 21.675781 -5.296875 15.351562 -3.488281 8.125 -1.9375 L 5.03125 -8.90625 C 20 -11.738281 31.359375 -15.609375 39.109375 -20.515625 L 6.96875 -20.515625 L 6.96875 -27.484375 L 46.84375 -27.484375 C 46.070312 -29.035156 45.171875 -30.328125 44.140625 -31.359375 L 51.484375 -33.6875 C 53.035156 -31.875 54.328125 -29.804688 55.359375 -27.484375 L 92.140625 -27.484375 L 92.140625 -20.515625 L 54.203125 -20.515625 C 57.035156 -16.128906 60.519531 -12.390625 64.65625 -9.296875 C 68.78125 -12.128906 72.265625 -15.097656 75.109375 -18.203125 L 82.078125 -14.328125 C 78.460938 -10.710938 74.71875 -7.742188 70.84375 -5.421875 C 76.519531 -2.066406 84.132812 0 93.6875 0.78125 L 91.75 7.75 C 72.132812 6.96875 57.425781 -1.804688 47.625 -18.578125 C 44.519531 -16.003906 40.257812 -13.296875 34.84375 -10.453125 L 34.84375 1.15625 C 40.519531 -0.132812 45.679688 -1.550781 50.328125 -3.09375 L 52.265625 3.09375 C 44.773438 5.414062 37.675781 7.351562 30.96875 8.90625 L 27.09375 5.03125 Z M 14.71875 -80.53125 L 20.90625 -78.59375 C 20.644531 -77.5625 20.128906 -76.398438 19.359375 -75.109375 L 29.421875 -75.109375 L 29.421875 -80.90625 L 37.171875 -80.90625 L 37.171875 -75.109375 L 55.75 -75.109375 L 55.75 -68.90625 L 37.171875 -68.90625 L 37.171875 -62.328125 L 59.625 -62.328125 L 59.625 -55.75 L 37.171875 -55.75 L 37.171875 -51.484375 L 57.296875 -51.484375 L 57.296875 -41.03125 C 57.296875 -38.707031 56.582031 -36.960938 55.15625 -35.796875 C 53.738281 -34.640625 51.613281 -34.0625 48.78125 -34.0625 C 47.226562 -34.0625 45.550781 -34.320312 43.75 -34.84375 L 42.203125 -40.265625 C 45.035156 -40.003906 47.097656 -39.875 48.390625 -39.875 C 49.421875 -39.875 49.9375 -40.78125 49.9375 -42.59375 L 49.9375 -45.296875 L 37.171875 -45.296875 L 37.171875 -30.578125 L 29.421875 -30.578125 L 29.421875 -45.296875 L 17.421875 -45.296875 L 17.421875 -32.515625 L 10.0625 -32.515625 L 10.0625 -51.484375 L 29.421875 -51.484375 L 29.421875 -55.75 L 5.421875 -55.75 L 5.421875 -62.328125 L 29.421875 -62.328125 L 29.421875 -68.90625 L 15.875 -68.90625 C 14.582031 -66.582031 13.035156 -64.648438 11.234375 -63.109375 L 6.1875 -67.359375 C 10.320312 -71.742188 13.164062 -76.132812 14.71875 -80.53125 Z M 82.078125 -80.140625 L 89.046875 -80.140625 L 89.046875 -39.109375 C 89.046875 -36.003906 88.398438 -33.804688 87.109375 -32.515625 C 85.816406 -31.222656 83.109375 -30.578125 78.984375 -30.578125 C 76.140625 -30.578125 73.425781 -30.96875 70.84375 -31.75 L 69.6875 -38.71875 C 72.78125 -37.6875 75.878906 -37.171875 78.984375 -37.171875 C 81.046875 -37.171875 82.078125 -38.203125 82.078125 -40.265625 Z M 65.8125 -74.328125 L 72.78125 -74.328125 L 72.78125 -45.296875 L 65.8125 -45.296875 Z M 65.8125 -74.328125 "/></g></g></g><g fill="#00ffff" fill-opacity="1"><g transform="translate(193.043445, 486.815514)"><g><path d="M 11.609375 -77.8125 C 16.773438 -74.457031 21.421875 -70.457031 25.546875 -65.8125 L 20.125 -59.234375 C 15.738281 -64.390625 11.09375 -68.648438 6.1875 -72.015625 Z M 5.03125 -45.6875 L 24.390625 -45.6875 L 24.390625 -8.515625 C 27.484375 -6.191406 31.414062 -4.515625 36.1875 -3.484375 C 40.96875 -2.453125 51.359375 -1.9375 67.359375 -1.9375 L 94.46875 -1.9375 L 90.59375 6.578125 L 59.625 6.578125 C 48.269531 6.578125 40.007812 5.800781 34.84375 4.25 C 29.675781 2.707031 25.160156 0.257812 21.296875 -3.09375 L 10.0625 8.125 L 4.640625 0 C 8.773438 -2.320312 12.773438 -4.773438 16.640625 -7.359375 L 16.640625 -38.328125 L 5.03125 -38.328125 Z M 44.90625 -78.984375 L 51.484375 -77.046875 L 48.390625 -69.6875 L 58.84375 -69.6875 L 58.84375 -80.140625 L 66.203125 -80.140625 L 66.203125 -69.6875 L 87.875 -69.6875 L 87.875 -62.71875 L 66.203125 -62.71875 L 66.203125 -50.71875 L 93.296875 -50.71875 L 93.296875 -43.75 L 29.421875 -43.75 L 29.421875 -50.71875 L 58.84375 -50.71875 L 58.84375 -62.71875 L 44.90625 -62.71875 C 42.582031 -58.84375 40.003906 -55.488281 37.171875 -52.65625 L 31.359375 -56.90625 C 37.554688 -63.613281 42.070312 -70.972656 44.90625 -78.984375 Z M 37.9375 -36.390625 L 86.71875 -36.390625 L 86.71875 -10.0625 L 37.9375 -10.0625 Z M 45.296875 -17.03125 L 79.359375 -17.03125 L 79.359375 -29.8125 L 45.296875 -29.8125 Z M 45.296875 -17.03125 "/></g></g></g><g fill="#00ffff" fill-opacity="1"><g transform="translate(302.747018, 486.815514)"><g><path d="M 8.515625 -57.296875 L 44.515625 -57.296875 L 44.515625 -79.75 L 53.03125 -79.75 L 53.03125 -57.296875 L 90.984375 -57.296875 L 90.984375 -49.5625 L 54.59375 -49.5625 C 61.5625 -25.039062 75.109375 -8.390625 95.234375 0.390625 L 90.984375 8.90625 C 72.648438 0.382812 59.226562 -15.097656 50.71875 -37.546875 C 45.039062 -18.710938 30.972656 -3.226562 8.515625 8.90625 L 4.265625 1.546875 C 29.296875 -12.648438 42.585938 -29.6875 44.140625 -49.5625 L 8.515625 -49.5625 Z M 8.515625 -57.296875 "/></g></g></g><g fill="#00ffff" fill-opacity="1"><g transform="translate(412.450584, 486.815514)"><g><path d="M 44.140625 -74.71875 L 93.6875 -74.71875 L 93.6875 -67.75 L 72.78125 -67.75 L 72.78125 -54.59375 L 90.984375 -54.59375 L 90.984375 -13.9375 C 90.984375 -10.84375 90.144531 -8.457031 88.46875 -6.78125 C 86.789062 -5.101562 84.269531 -4.265625 80.90625 -4.265625 C 79.363281 -4.265625 77.5625 -4.519531 75.5 -5.03125 L 73.5625 -12.78125 C 76.65625 -12.257812 78.976562 -12 80.53125 -12 C 82.59375 -12 83.625 -13.289062 83.625 -15.875 L 83.625 -47.625 L 72.78125 -47.625 L 72.78125 8.90625 L 65.8125 8.90625 L 65.8125 -47.625 L 54.59375 -47.625 L 54.59375 -3.875 L 47.234375 -3.875 L 47.234375 -54.59375 L 65.8125 -54.59375 L 65.8125 -67.75 L 44.140625 -67.75 Z M 19.359375 -80.53125 L 27.875 -78.59375 C 27.101562 -75.75 26.203125 -73.035156 25.171875 -70.453125 L 39.484375 -70.453125 L 39.484375 -40.65625 L 15.09375 -40.65625 L 15.09375 -32.140625 L 40.65625 -32.140625 L 40.65625 5.421875 L 32.90625 5.421875 L 32.90625 -1.546875 L 15.09375 -1.546875 L 15.09375 8.90625 L 8.125 8.90625 L 8.125 -70.453125 L 16.640625 -70.453125 C 17.929688 -73.816406 18.835938 -77.175781 19.359375 -80.53125 Z M 15.09375 -47.625 L 32.515625 -47.625 L 32.515625 -63.484375 L 15.09375 -63.484375 Z M 15.09375 -25.171875 L 15.09375 -8.515625 L 32.90625 -8.515625 L 32.90625 -25.171875 Z M 15.09375 -25.171875 "/></g></g></g><g fill="#2bf6ff" fill-opacity="1"><g transform="translate(78.421652, 487.4194)"><g><path d="M 27.09375 -7.359375 C 21.675781 -5.296875 15.351562 -3.488281 8.125 -1.9375 L 5.03125 -8.90625 C 20 -11.738281 31.359375 -15.609375 39.109375 -20.515625 L 6.96875 -20.515625 L 6.96875 -27.484375 L 46.84375 -27.484375 C 46.070312 -29.035156 45.171875 -30.328125 44.140625 -31.359375 L 51.484375 -33.6875 C 53.035156 -31.875 54.328125 -29.804688 55.359375 -27.484375 L 92.140625 -27.484375 L 92.140625 -20.515625 L 54.203125 -20.515625 C 57.035156 -16.128906 60.519531 -12.390625 64.65625 -9.296875 C 68.78125 -12.128906 72.265625 -15.097656 75.109375 -18.203125 L 82.078125 -14.328125 C 78.460938 -10.710938 74.71875 -7.742188 70.84375 -5.421875 C 76.519531 -2.066406 84.132812 0 93.6875 0.78125 L 91.75 7.75 C 72.132812 6.96875 57.425781 -1.804688 47.625 -18.578125 C 44.519531 -16.003906 40.257812 -13.296875 34.84375 -10.453125 L 34.84375 1.15625 C 40.519531 -0.132812 45.679688 -1.550781 50.328125 -3.09375 L 52.265625 3.09375 C 44.773438 5.414062 37.675781 7.351562 30.96875 8.90625 L 27.09375 5.03125 Z M 14.71875 -80.53125 L 20.90625 -78.59375 C 20.644531 -77.5625 20.128906 -76.398438 19.359375 -75.109375 L 29.421875 -75.109375 L 29.421875 -80.90625 L 37.171875 -80.90625 L 37.171875 -75.109375 L 55.75 -75.109375 L 55.75 -68.90625 L 37.171875 -68.90625 L 37.171875 -62.328125 L 59.625 -62.328125 L 59.625 -55.75 L 37.171875 -55.75 L 37.171875 -51.484375 L 57.296875 -51.484375 L 57.296875 -41.03125 C 57.296875 -38.707031 56.582031 -36.960938 55.15625 -35.796875 C 53.738281 -34.640625 51.613281 -34.0625 48.78125 -34.0625 C 47.226562 -34.0625 45.550781 -34.320312 43.75 -34.84375 L 42.203125 -40.265625 C 45.035156 -40.003906 47.097656 -39.875 48.390625 -39.875 C 49.421875 -39.875 49.9375 -40.78125 49.9375 -42.59375 L 49.9375 -45.296875 L 37.171875 -45.296875 L 37.171875 -30.578125 L 29.421875 -30.578125 L 29.421875 -45.296875 L 17.421875 -45.296875 L 17.421875 -32.515625 L 10.0625 -32.515625 L 10.0625 -51.484375 L 29.421875 -51.484375 L 29.421875 -55.75 L 5.421875 -55.75 L 5.421875 -62.328125 L 29.421875 -62.328125 L 29.421875 -68.90625 L 15.875 -68.90625 C 14.582031 -66.582031 13.035156 -64.648438 11.234375 -63.109375 L 6.1875 -67.359375 C 10.320312 -71.742188 13.164062 -76.132812 14.71875 -80.53125 Z M 82.078125 -80.140625 L 89.046875 -80.140625 L 89.046875 -39.109375 C 89.046875 -36.003906 88.398438 -33.804688 87.109375 -32.515625 C 85.816406 -31.222656 83.109375 -30.578125 78.984375 -30.578125 C 76.140625 -30.578125 73.425781 -30.96875 70.84375 -31.75 L 69.6875 -38.71875 C 72.78125 -37.6875 75.878906 -37.171875 78.984375 -37.171875 C 81.046875 -37.171875 82.078125 -38.203125 82.078125 -40.265625 Z M 65.8125 -74.328125 L 72.78125 -74.328125 L 72.78125 -45.296875 L 65.8125 -45.296875 Z M 65.8125 -74.328125 "/></g></g></g><g fill="#2bf6ff" fill-opacity="1"><g transform="translate(188.125224, 487.4194)"><g><path d="M 11.609375 -77.8125 C 16.773438 -74.457031 21.421875 -70.457031 25.546875 -65.8125 L 20.125 -59.234375 C 15.738281 -64.390625 11.09375 -68.648438 6.1875 -72.015625 Z M 5.03125 -45.6875 L 24.390625 -45.6875 L 24.390625 -8.515625 C 27.484375 -6.191406 31.414062 -4.515625 36.1875 -3.484375 C 40.96875 -2.453125 51.359375 -1.9375 67.359375 -1.9375 L 94.46875 -1.9375 L 90.59375 6.578125 L 59.625 6.578125 C 48.269531 6.578125 40.007812 5.800781 34.84375 4.25 C 29.675781 2.707031 25.160156 0.257812 21.296875 -3.09375 L 10.0625 8.125 L 4.640625 0 C 8.773438 -2.320312 12.773438 -4.773438 16.640625 -7.359375 L 16.640625 -38.328125 L 5.03125 -38.328125 Z M 44.90625 -78.984375 L 51.484375 -77.046875 L 48.390625 -69.6875 L 58.84375 -69.6875 L 58.84375 -80.140625 L 66.203125 -80.140625 L 66.203125 -69.6875 L 87.875 -69.6875 L 87.875 -62.71875 L 66.203125 -62.71875 L 66.203125 -50.71875 L 93.296875 -50.71875 L 93.296875 -43.75 L 29.421875 -43.75 L 29.421875 -50.71875 L 58.84375 -50.71875 L 58.84375 -62.71875 L 44.90625 -62.71875 C 42.582031 -58.84375 40.003906 -55.488281 37.171875 -52.65625 L 31.359375 -56.90625 C 37.554688 -63.613281 42.070312 -70.972656 44.90625 -78.984375 Z M 37.9375 -36.390625 L 86.71875 -36.390625 L 86.71875 -10.0625 L 37.9375 -10.0625 Z M 45.296875 -17.03125 L 79.359375 -17.03125 L 79.359375 -29.8125 L 45.296875 -29.8125 Z M 45.296875 -17.03125 "/></g></g></g><g fill="#2bf6ff" fill-opacity="1"><g transform="translate(297.828797, 487.4194)"><g><path d="M 8.515625 -57.296875 L 44.515625 -57.296875 L 44.515625 -79.75 L 53.03125 -79.75 L 53.03125 -57.296875 L 90.984375 -57.296875 L 90.984375 -49.5625 L 54.59375 -49.5625 C 61.5625 -25.039062 75.109375 -8.390625 95.234375 0.390625 L 90.984375 8.90625 C 72.648438 0.382812 59.226562 -15.097656 50.71875 -37.546875 C 45.039062 -18.710938 30.972656 -3.226562 8.515625 8.90625 L 4.265625 1.546875 C 29.296875 -12.648438 42.585938 -29.6875 44.140625 -49.5625 L 8.515625 -49.5625 Z M 8.515625 -57.296875 "/></g></g></g><g fill="#2bf6ff" fill-opacity="1"><g transform="translate(407.532364, 487.4194)"><g><path d="M 44.140625 -74.71875 L 93.6875 -74.71875 L 93.6875 -67.75 L 72.78125 -67.75 L 72.78125 -54.59375 L 90.984375 -54.59375 L 90.984375 -13.9375 C 90.984375 -10.84375 90.144531 -8.457031 88.46875 -6.78125 C 86.789062 -5.101562 84.269531 -4.265625 80.90625 -4.265625 C 79.363281 -4.265625 77.5625 -4.519531 75.5 -5.03125 L 73.5625 -12.78125 C 76.65625 -12.257812 78.976562 -12 80.53125 -12 C 82.59375 -12 83.625 -13.289062 83.625 -15.875 L 83.625 -47.625 L 72.78125 -47.625 L 72.78125 8.90625 L 65.8125 8.90625 L 65.8125 -47.625 L 54.59375 -47.625 L 54.59375 -3.875 L 47.234375 -3.875 L 47.234375 -54.59375 L 65.8125 -54.59375 L 65.8125 -67.75 L 44.140625 -67.75 Z M 19.359375 -80.53125 L 27.875 -78.59375 C 27.101562 -75.75 26.203125 -73.035156 25.171875 -70.453125 L 39.484375 -70.453125 L 39.484375 -40.65625 L 15.09375 -40.65625 L 15.09375 -32.140625 L 40.65625 -32.140625 L 40.65625 5.421875 L 32.90625 5.421875 L 32.90625 -1.546875 L 15.09375 -1.546875 L 15.09375 8.90625 L 8.125 8.90625 L 8.125 -70.453125 L 16.640625 -70.453125 C 17.929688 -73.816406 18.835938 -77.175781 19.359375 -80.53125 Z M 15.09375 -47.625 L 32.515625 -47.625 L 32.515625 -63.484375 L 15.09375 -63.484375 Z M 15.09375 -25.171875 L 15.09375 -8.515625 L 32.90625 -8.515625 L 32.90625 -25.171875 Z M 15.09375 -25.171875 "/></g></g></g><g mask="url(#8ba7e3f1f1)"><g transform="matrix(1, 0, 0, 1, 74, 145)"><g clip-path="url(#27886501ba)"><g clip-path="url(#7bc6e1225b)"><g clip-path="url(#dc04242216)"><g clip-path="url(#47bd739f16)"><path fill="#004aad" d="M 85.824219 45.273438 C 85.632812 44.765625 85.496094 44.507812 85.425781 44.234375 C 85.1875 43.433594 85.03125 42.773438 85.414062 41.8125 C 85.851562 40.675781 85.65625 39.296875 85.722656 38.023438 C 85.734375 37.84375 85.636719 37.636719 85.710938 37.527344 C 85.894531 37.160156 85.53125 36.597656 86.039062 36.363281 C 86.550781 36.128906 86.875 36.601562 87.242188 36.828125 C 87.542969 37.027344 87.84375 37.183594 88.167969 37.363281 C 88.558594 37.570312 88.972656 37.710938 89.375 37.402344 C 89.78125 37.09375 89.582031 36.722656 89.453125 36.332031 C 89.058594 34.914062 89.113281 33.480469 89.636719 32.0625 C 89.890625 31.339844 90.164062 30.597656 89.929688 29.792969 C 89.804688 29.359375 89.878906 28.917969 90.5 28.710938 C 91.347656 28.4375 91.578125 27.734375 91.566406 26.902344 C 91.546875 25.914062 91.457031 24.945312 91.902344 24.011719 C 92.214844 23.40625 91.792969 23.019531 91.417969 22.632812 C 89.9375 21.027344 90.769531 19.378906 92.121094 18.667969 C 93.003906 18.191406 94.433594 18.582031 95.054688 19.34375 C 95.613281 20.03125 95.648438 21.425781 95.039062 22.167969 C 94.273438 23.125 94.273438 24.085938 94.695312 25.148438 C 95.015625 26 94.554688 26.820312 94.5625 27.695312 C 94.710938 31.339844 94.882812 34.960938 94.808594 38.589844 C 94.746094 42.082031 94.820312 45.542969 94.84375 49.042969 C 94.859375 49.78125 95.027344 50.265625 95.691406 50.691406 C 95.925781 49.609375 96.386719 49.417969 97.011719 50.425781 C 97.152344 50.636719 97.441406 50.679688 97.660156 50.785156 C 98.203125 51.023438 98.71875 51.375 98.601562 52.0625 C 98.484375 52.792969 98.898438 53.269531 99.148438 53.847656 C 99.871094 55.402344 100.457031 56.992188 99.972656 58.75 C 99.851562 59.234375 100.183594 59.574219 100.703125 59.542969 C 101.042969 59.496094 101.371094 59.296875 101.691406 59.183594 C 101.992188 59.09375 102.171875 58.433594 102.542969 58.863281 C 102.875 59.246094 103.574219 59.519531 103.300781 60.261719 C 103.160156 60.632812 103.363281 60.960938 103.472656 61.28125 C 103.644531 61.765625 103.738281 62.308594 103.441406 62.738281 C 102.769531 63.65625 103.175781 64.265625 103.828125 64.871094 C 104.3125 65.332031 104.867188 65.773438 105.347656 66.234375 C 105.75 66.597656 106.160156 67.164062 105.636719 67.578125 C 105.160156 67.949219 104.464844 67.675781 104.1875 67.117188 C 103.636719 66.046875 102.722656 65.289062 102.121094 64.261719 C 101.859375 63.859375 101.625 63.351562 101.058594 63.761719 C 100.46875 64.191406 100.792969 64.660156 101.152344 65.023438 C 102.449219 66.324219 103.773438 67.605469 104.957031 68.964844 C 106.449219 70.683594 107.992188 72.40625 109.316406 74.269531 C 110.273438 75.660156 111.566406 76.757812 112.691406 77.960938 C 114.007812 79.375 114.988281 81.078125 116.300781 82.496094 C 116.699219 82.902344 116.988281 83.574219 116.5 84.167969 C 115.984375 84.78125 115.4375 84.25 114.933594 84.101562 C 114.539062 83.984375 114.199219 83.691406 113.933594 83.339844 C 112.082031 80.921875 109.832031 78.8125 108 76.421875 C 105.371094 73.007812 102.449219 69.890625 99.503906 66.746094 C 99.214844 66.410156 98.925781 66.03125 98.324219 65.96875 C 98.214844 66.902344 98.824219 67.503906 99.273438 68.121094 C 100.089844 69.296875 101.285156 70.144531 102.246094 71.199219 C 103.351562 72.375 104.078125 73.835938 105.28125 74.929688 C 106.144531 75.730469 106.042969 76.867188 105.355469 77.378906 C 105.046875 77.605469 104.78125 77.585938 104.480469 77.386719 C 103.089844 76.414062 101.75 75.402344 101.03125 73.804688 C 100.953125 73.621094 100.8125 73.40625 100.640625 73.304688 C 98.832031 72.238281 98.050781 70.234375 96.527344 68.914062 C 96.191406 68.621094 95.855469 68.285156 95.46875 68.035156 C 94.820312 67.675781 94.226562 67.8125 93.761719 68.386719 C 93.25 68.957031 93.625 69.386719 94.046875 69.773438 C 95.792969 71.441406 96.988281 73.542969 98.664062 75.277344 C 99.121094 75.757812 99.335938 76.535156 98.78125 77.101562 C 98.132812 77.75 97.464844 77.324219 96.898438 76.8125 C 95.234375 75.238281 93.980469 73.3125 92.4375 71.632812 C 91.933594 71.105469 91.585938 70.949219 91.097656 71.542969 C 90.902344 71.796875 90.621094 71.957031 90.359375 72.183594 C 89.875 72.644531 89.664062 73.121094 90.203125 73.742188 C 92.59375 76.445312 94.414062 79.597656 97.113281 82.074219 C 99.007812 83.820312 100.355469 86.046875 101.960938 88.085938 C 102.167969 88.371094 102.34375 88.71875 102.621094 88.941406 C 104.773438 90.839844 106.257812 93.363281 108.246094 95.410156 C 109.269531 96.488281 110.582031 97.277344 111.484375 98.503906 C 112.671875 100.113281 113.835938 101.742188 115.550781 102.894531 C 116.042969 103.21875 116.339844 103.800781 116.683594 104.296875 C 117.359375 105.21875 118.0625 106.074219 118.949219 106.851562 C 120.117188 107.808594 120.898438 109.140625 121.683594 110.429688 C 122.265625 111.390625 123.304688 111.957031 123.652344 113.078125 C 123.816406 113.605469 123.855469 114.035156 123.445312 114.433594 C 123.011719 114.851562 122.601562 114.621094 122.167969 114.410156 C 120.972656 113.855469 120.1875 112.90625 119.546875 111.828125 C 119.203125 111.289062 118.839844 110.679688 118.328125 110.332031 C 117.257812 109.582031 116.6875 108.445312 115.949219 107.449219 C 114.824219 105.914062 113.667969 104.488281 112.109375 103.324219 C 111.066406 102.558594 110.269531 101.449219 109.492188 100.363281 C 108.898438 99.535156 108.375 98.691406 107.492188 98.160156 C 105.902344 97.195312 105.144531 95.507812 104.054688 94.109375 C 103.578125 93.515625 103.078125 92.984375 102.554688 92.476562 C 101.460938 91.414062 100.417969 90.3125 99.683594 88.9375 C 99.308594 88.214844 98.449219 87.953125 98.027344 87.273438 C 96.492188 84.835938 93.9375 83.242188 92.445312 80.808594 C 91.136719 78.675781 88.964844 77.335938 87.707031 75.160156 C 87.445312 74.71875 86.953125 74.347656 86.5 74.113281 C 86 73.875 85.363281 73.675781 84.839844 73.796875 C 84.25 73.933594 84.375 74.660156 84.34375 75.152344 C 84.324219 75.753906 83.484375 75.898438 83.589844 76.601562 C 83.734375 77.441406 83.953125 78.171875 84.628906 78.757812 C 86.21875 80.058594 87 82.0625 88.449219 83.488281 C 88.84375 83.898438 88.570312 84.304688 88.433594 84.675781 C 88.246094 85.089844 87.851562 84.972656 87.492188 84.945312 C 86.9375 84.886719 86.535156 84.566406 86.160156 84.136719 C 84.957031 82.75 83.703125 81.40625 82.59375 79.984375 C 81.953125 79.15625 81.09375 79.273438 80.269531 79.195312 C 79.9375 79.148438 79.761719 79.429688 79.804688 79.769531 C 79.839844 80.195312 79.949219 80.605469 80.238281 80.941406 C 83.890625 85.144531 87.523438 89.320312 91.179688 93.523438 C 93.542969 96.246094 95.886719 98.988281 98.230469 101.730469 C 98.644531 102.207031 99.152344 102.644531 99.519531 103.164062 C 99.992188 103.757812 100.277344 104.519531 99.699219 105.105469 C 99.097656 105.667969 98.472656 105.289062 97.832031 104.839844 C 96.125 103.601562 95.199219 101.765625 93.847656 100.257812 C 92.703125 98.988281 91.484375 97.78125 90.3125 96.578125 C 89.226562 95.472656 87.792969 94.453125 87.1875 92.886719 C 86.957031 92.285156 86.5 91.804688 86.109375 91.308594 C 83.585938 88.261719 80.914062 85.382812 77.90625 82.84375 C 77.164062 82.230469 76.296875 81.808594 75.390625 81.972656 C 74.480469 82.132812 73.996094 83.9375 74.492188 84.847656 C 75.328125 86.382812 76.402344 87.714844 77.714844 88.839844 C 78.964844 89.890625 79.972656 91.148438 80.820312 92.507812 C 81.386719 93.398438 81.957031 94.246094 82.832031 94.867188 C 83.132812 95.070312 83.285156 95.4375 83.375 95.78125 C 83.519531 96.285156 83.769531 96.863281 83.265625 97.296875 C 82.695312 97.796875 82.1875 97.359375 81.734375 97.078125 C 80.898438 96.550781 80.230469 95.832031 79.613281 95.027344 C 77.570312 92.484375 75.511719 89.871094 72.988281 87.789062 C 72.351562 87.253906 71.464844 86.808594 70.585938 87.535156 C 69.609375 88.339844 69.414062 89.179688 70.058594 90.253906 C 71.0625 91.894531 72.378906 93.308594 73.695312 94.679688 C 75.011719 96.050781 76.355469 97.398438 77.363281 98.996094 C 78.113281 100.144531 79.03125 101.152344 80.117188 101.96875 C 80.242188 102.066406 80.390625 102.1875 80.515625 102.332031 C 83.277344 105.507812 86.085938 108.640625 88.796875 111.902344 C 89.4375 112.6875 90.003906 113.578125 90.6875 114.367188 C 91.082031 114.820312 91.355469 115.421875 90.929688 116.042969 C 90.65625 116.40625 90.1875 116.6875 89.800781 116.480469 C 89.171875 116.144531 88.484375 115.738281 88.164062 115.175781 C 87.484375 114.007812 86.554688 113.179688 85.5625 112.28125 C 84.238281 111.046875 83.25 109.429688 82.144531 107.917969 C 81.878906 107.5625 81.707031 107.125 81.316406 106.960938 C 80.160156 106.457031 79.507812 105.558594 78.910156 104.484375 C 78.488281 103.761719 77.90625 103.089844 77.132812 102.632812 C 76.464844 102.25 76.007812 101.726562 75.632812 101.003906 C 74.617188 99.160156 73.289062 97.589844 71.605469 96.328125 C 71.054688 95.886719 70.550781 95.402344 70.191406 94.75 C 69.574219 93.652344 68.132812 93.394531 67.425781 92.292969 C 67.304688 92.101562 66.996094 92.328125 66.917969 92.523438 C 66.757812 92.871094 66.335938 93.113281 66.636719 93.648438 C 67.65625 95.445312 69.03125 96.933594 70.546875 98.339844 C 71.515625 99.257812 72.4375 100.175781 73.140625 101.324219 C 73.464844 101.839844 73.855469 102.335938 74.296875 102.75 C 76.394531 104.824219 78.066406 107.230469 79.996094 109.449219 C 81.324219 111.023438 83.03125 112.261719 84.308594 113.875 C 86.488281 116.675781 89.097656 119.144531 91.085938 122.152344 C 91.472656 122.742188 92.074219 123.097656 92.3125 123.851562 C 92.476562 124.378906 92.320312 124.683594 92.078125 124.980469 C 91.785156 125.320312 91.359375 125.3125 90.898438 125.167969 C 89.28125 124.5625 88.316406 123.261719 87.445312 121.921875 C 86.207031 120.0625 84.847656 118.355469 83.058594 116.972656 C 81.910156 116.085938 81.382812 114.660156 80.378906 113.648438 C 79.960938 113.214844 79.566406 112.761719 79.050781 112.410156 C 77.527344 111.429688 76.882812 109.726562 75.8125 108.351562 C 75.054688 107.332031 74.339844 106.320312 73.339844 105.554688 C 71.742188 104.34375 71.078125 102.324219 69.503906 101.09375 C 68.097656 100.007812 67.050781 98.609375 65.890625 97.273438 C 65.289062 96.582031 64.4375 96.230469 63.65625 95.863281 C 63.222656 95.652344 62.964844 95.792969 62.996094 96.308594 C 63.023438 96.871094 63.050781 97.480469 62.878906 98.007812 C 62.59375 98.882812 61.902344 99.148438 61.128906 98.644531 C 60.894531 98.472656 60.667969 98.210938 60.40625 98.394531 C 60.125 98.597656 60.347656 98.90625 60.375 99.175781 C 60.800781 102.078125 62.890625 103.949219 64.679688 105.914062 C 66.554688 108.015625 68.425781 110.121094 70.105469 112.390625 C 71.230469 113.925781 73.027344 114.835938 74.035156 116.476562 C 75.304688 118.515625 77.21875 120.042969 78.417969 122.144531 C 78.71875 122.636719 78.753906 123.0625 78.433594 123.511719 C 78.011719 124.089844 77.496094 123.738281 77.085938 123.550781 C 76.472656 123.332031 75.960938 122.9375 75.550781 122.414062 C 74.433594 121.035156 73.15625 119.757812 72.183594 118.253906 C 71.191406 116.726562 69.4375 115.820312 68.496094 114.253906 C 67.144531 112.074219 64.820312 110.65625 63.734375 108.246094 C 63.65625 108.0625 63.46875 107.890625 63.292969 107.789062 C 62.273438 107 61.300781 106.171875 60.6875 104.984375 C 59.777344 103.261719 58.148438 102.496094 56.5 101.710938 C 55.21875 101.105469 54.769531 100.152344 55.046875 98.738281 C 55.144531 98.316406 55.074219 98.042969 54.703125 97.863281 C 53.082031 97.007812 51.433594 96.175781 49.613281 95.914062 C 48.460938 95.742188 47.691406 94.859375 46.660156 94.542969 C 46.109375 94.390625 46.472656 94.035156 46.710938 93.828125 C 47.113281 93.519531 47.378906 93.246094 46.777344 92.890625 C 46.667969 92.816406 46.570312 92.652344 46.667969 92.523438 C 47.675781 91.269531 46.429688 91.722656 45.972656 91.578125 C 43.921875 91.054688 41.808594 91.132812 39.738281 90.582031 C 38.019531 90.148438 36.183594 90.109375 34.410156 89.808594 C 31.175781 89.265625 27.910156 88.835938 24.644531 88.363281 C 23.246094 88.152344 21.867188 87.675781 20.386719 88 C 19.679688 88.152344 19.066406 88.601562 18.238281 88.566406 C 17.011719 88.503906 15.460938 86.914062 15.871094 85.554688 C 16.191406 84.476562 16.617188 83.566406 17.925781 83.433594 C 19.03125 83.308594 19.957031 83.550781 20.609375 84.492188 C 21.117188 85.269531 21.753906 85.425781 22.648438 85.152344 C 23.933594 84.746094 25.292969 84.867188 26.605469 84.394531 C 27.269531 84.152344 27.453125 83.78125 27.28125 83.34375 C 26.878906 82.398438 27.527344 82.082031 28.125 81.855469 C 28.863281 81.59375 29.636719 81.421875 30.285156 82.117188 C 30.386719 82.238281 30.648438 82.347656 30.785156 82.3125 C 31.792969 82.023438 32.535156 82.636719 33.144531 83.195312 C 34.429688 84.425781 35.941406 84.285156 37.457031 84.101562 C 39.222656 83.863281 40.890625 83.375 42.492188 82.613281 C 43.371094 82.226562 43.609375 81.726562 43.195312 80.914062 C 42.5625 79.703125 42.023438 78.410156 41.207031 77.273438 C 40.371094 76.074219 39.363281 75.0625 37.933594 74.667969 C 36.878906 74.371094 36.234375 73.632812 35.617188 72.871094 C 35.492188 72.726562 35.253906 72.597656 35.335938 72.359375 C 35.445312 72.097656 35.714844 72.070312 35.964844 72.066406 C 36.503906 72.058594 37.304688 72.449219 37.425781 71.675781 C 37.53125 71.121094 36.84375 70.714844 36.304688 70.386719 C 34.066406 69.019531 31.902344 67.589844 29.988281 65.773438 C 29.566406 65.386719 29.160156 65.445312 28.648438 65.722656 C 27.207031 66.429688 25.753906 66.351562 24.554688 65.214844 C 23.566406 64.269531 23.066406 63.113281 23.460938 61.640625 C 23.886719 60.054688 26.035156 59.152344 27.5 59.972656 C 28.472656 60.511719 29.234375 61.144531 29.605469 62.25 C 29.8125 62.867188 30.257812 63.234375 31.058594 63.292969 C 32.953125 63.445312 34.667969 64.261719 36.414062 64.964844 C 38.570312 65.855469 40.785156 66.570312 43.035156 67.132812 C 45.457031 67.75 47.847656 68.566406 50.355469 68.898438 C 51.402344 69.039062 52.378906 68.816406 53.378906 68.660156 C 53.605469 68.632812 53.816406 68.492188 53.765625 68.242188 C 53.1875 66.269531 53.644531 64.195312 53.019531 62.222656 C 52.910156 61.855469 52.738281 61.464844 52.429688 61.351562 C 51.34375 60.871094 51.078125 59.84375 50.625 58.9375 C 49.863281 57.339844 48.40625 56.339844 47.261719 55.117188 C 46.613281 54.421875 46.167969 53.71875 46.214844 52.753906 C 46.214844 52.417969 46.082031 52.074219 45.949219 51.726562 C 45.542969 50.824219 45.375 50.007812 46.511719 49.433594 C 47.210938 49.082031 46.84375 48.5625 46.585938 48.074219 C 45.75 46.535156 44.894531 44.972656 44.128906 43.417969 C 43.796875 42.742188 43.277344 42.480469 42.664062 42.597656 C 41.070312 42.890625 39.460938 41.902344 38.738281 40.640625 C 38.023438 39.335938 38.128906 37.816406 39.433594 36.179688 C 40.316406 35.078125 41.191406 34.441406 42.652344 34.722656 C 43.976562 34.996094 45.707031 36.550781 45.527344 37.839844 C 45.222656 39.992188 46.617188 41.167969 47.90625 42.3125 C 49.066406 43.355469 50.292969 44.429688 51.894531 44.921875 C 52.070312 44.980469 52.285156 45.128906 52.40625 45.316406 C 53.457031 46.960938 55.199219 47.710938 56.746094 48.667969 C 57.867188 49.332031 59.125 49.621094 60.386719 49.867188 C 61.160156 50.03125 62.109375 50.210938 62.140625 51.402344 C 62.136719 52.117188 62.601562 52.507812 63.277344 52.804688 C 65.386719 53.734375 67.523438 54.265625 69.84375 54.136719 C 70.203125 54.117188 70.515625 54.136719 70.5625 53.761719 C 70.734375 52.3125 70.945312 50.871094 70.980469 49.417969 C 71.007812 48.050781 70.25 47.035156 68.984375 46.496094 C 67.941406 46.066406 67.523438 45.25 67.144531 44.28125 C 66.65625 42.949219 66.570312 41.597656 66.753906 40.21875 C 66.835938 39.730469 66.894531 39.175781 66.722656 38.738281 C 66.265625 37.582031 66.953125 37.699219 67.640625 37.8125 C 68.660156 37.976562 69.34375 37.507812 69.609375 36.605469 C 70.160156 34.785156 69.796875 32.964844 69.359375 31.207031 C 69.269531 30.863281 69.144531 30.429688 69.097656 30.089844 C 68.933594 28.933594 68.847656 27.917969 67.402344 27.414062 C 66.394531 27.074219 66.070312 24.675781 66.652344 23.707031 C 66.851562 23.40625 67.054688 23.105469 67.1875 22.78125 C 68.105469 20.847656 69.78125 20.652344 71.628906 21.8125 C 73.304688 22.824219 73.765625 24.269531 73.167969 26.089844 C 72.96875 26.726562 72.054688 26.933594 72.148438 27.859375 C 72.171875 28.171875 72.09375 28.617188 72.28125 28.832031 C 73.371094 29.9375 73.777344 31.515625 74.890625 32.601562 C 75.6875 33.375 76.136719 34.324219 76.628906 35.28125 C 77.886719 37.835938 79.214844 40.371094 81.363281 42.316406 C 82.59375 43.34375 83.949219 44.46875 85.824219 45.273438 Z M 66.449219 65.808594 C 64.851562 67.488281 63.359375 68.953125 62.039062 70.523438 C 60.445312 72.453125 58.875 74.40625 57.265625 76.265625 C 55.824219 77.9375 54.578125 79.734375 53.203125 81.476562 C 52.144531 82.816406 51.039062 84.195312 50.234375 85.730469 C 49.667969 86.8125 48.859375 87.8125 48.65625 89.074219 C 48.644531 89.253906 48.5625 89.449219 48.757812 89.574219 C 49.015625 89.726562 49.164062 89.515625 49.265625 89.34375 C 49.570312 88.824219 49.792969 88.210938 50.207031 87.769531 C 51.660156 86.210938 52.878906 84.480469 54.183594 82.800781 C 54.726562 82.121094 55.203125 81.414062 55.824219 80.828125 C 57.621094 79.183594 59.1875 77.320312 60.769531 75.523438 C 63.28125 72.671875 66.058594 70.128906 68.835938 67.585938 C 69.84375 66.671875 70.929688 65.851562 72.019531 65.03125 C 72.589844 64.574219 72.84375 63.851562 73.496094 63.496094 C 77.847656 61.21875 81.511719 57.867188 85.847656 55.523438 C 87.757812 54.488281 89.546875 53.269531 91.496094 52.328125 C 91.796875 52.191406 92.46875 52.238281 92.304688 51.667969 C 92.121094 51.117188 91.570312 51.59375 91.171875 51.519531 C 91.0625 51.492188 90.878906 51.566406 90.761719 51.625 C 88.992188 52.535156 87.03125 53.027344 85.273438 54.09375 C 83.402344 55.21875 81.304688 56.035156 79.472656 57.207031 C 77.828125 58.257812 76.203125 59.378906 74.527344 60.292969 C 71.566406 61.902344 69.238281 64.386719 66.449219 65.808594 Z M 96.675781 61.660156 C 96.882812 61.269531 97.402344 61.195312 97.230469 60.800781 C 97.035156 60.382812 96.675781 60.695312 96.382812 60.742188 C 96.132812 60.792969 95.921875 60.890625 95.667969 60.984375 C 93.179688 61.933594 91.089844 63.625 88.699219 64.78125 C 87.257812 65.488281 86.203125 66.78125 84.78125 67.601562 C 83.144531 68.519531 81.527344 69.550781 80.113281 70.820312 C 78.226562 72.503906 76.25 74.136719 74.300781 75.75 C 71.871094 77.777344 69.527344 79.859375 67.371094 82.152344 C 65.453125 84.238281 63.511719 86.34375 61.660156 88.503906 C 61 89.285156 60.378906 90.117188 59.71875 90.902344 C 58.761719 92.066406 57.71875 93.226562 57.082031 94.617188 C 56.976562 94.878906 56.863281 95.1875 57.1875 95.367188 C 57.46875 95.5 57.710938 95.246094 57.792969 95.050781 C 58.375 93.789062 59.378906 92.875 60.402344 92.023438 C 62.761719 90.058594 64.449219 87.417969 66.847656 85.457031 C 68.585938 84.03125 70.050781 82.292969 71.722656 80.839844 C 74.0625 78.804688 76.445312 76.820312 78.910156 74.929688 C 81.894531 72.625 84.554688 69.851562 87.6875 67.714844 C 88.816406 66.941406 89.636719 65.808594 90.886719 65.226562 C 92.996094 64.273438 94.476562 62.3125 96.675781 61.660156 Z M 62.28125 59.328125 C 61.84375 58.871094 61.164062 58.664062 60.503906 58.441406 C 60.042969 58.296875 59.460938 58.007812 59.125 58.300781 C 58.789062 58.589844 59.320312 59.050781 59.402344 59.441406 C 59.457031 59.644531 59.441406 59.867188 59.496094 60.074219 C 59.71875 61.054688 59.917969 62.054688 60.480469 62.945312 C 60.808594 63.417969 61.136719 64.179688 61.671875 63.882812 C 62.140625 63.601562 62.023438 62.738281 61.84375 62.097656 C 61.824219 62.03125 61.757812 62.003906 61.695312 61.933594 C 61.425781 61.621094 61.527344 61.449219 61.898438 61.296875 C 62.863281 60.960938 63.054688 60.164062 62.28125 59.328125 Z M 45.40625 73.332031 C 45.375 73.441406 45.347656 73.503906 45.320312 73.617188 C 45.707031 73.820312 46.070312 74.09375 46.484375 74.28125 C 47.652344 74.855469 48.667969 75.734375 50.003906 75.871094 C 50.316406 75.894531 51.6875 74.867188 51.707031 74.601562 C 51.71875 74.421875 51.613281 74.347656 51.460938 74.3125 C 49.503906 73.707031 47.484375 73.453125 45.40625 73.332031 Z M 76.945312 46.535156 C 76.824219 46.976562 76.636719 47.390625 76.652344 47.792969 C 76.675781 49.410156 76.765625 51.007812 76.855469 52.605469 C 76.882812 53.214844 77.203125 53.101562 77.558594 52.835938 C 78.316406 52.261719 78.703125 50.582031 78.453125 49.667969 C 78.148438 48.550781 77.820312 47.496094 76.945312 46.535156 Z M 51.121094 89.742188 C 50.9375 89.480469 50.675781 89.371094 50.414062 89.601562 C 50.222656 89.765625 50.027344 90.023438 50.191406 90.214844 C 50.460938 90.523438 50.832031 90.371094 51.132812 90.234375 C 51.410156 90.121094 51.222656 89.90625 51.121094 89.742188 Z M 51.121094 89.742188 " fill-opacity="1" fill-rule="nonzero"/></g></g></g><g clip-path="url(#77a09ac724)"><g clip-path="url(#357148f2ec)"><g clip-path="url(#a7776f3c4c)"><path fill="#004aad" d="M 77.875 23.210938 C 78.445312 23.722656 78.71875 24.324219 78.832031 24.9375 C 78.898438 25.300781 78.953125 25.800781 78.492188 25.945312 C 78.125 26.054688 77.75 25.960938 77.460938 25.628906 C 76.941406 25.03125 76.789062 24.324219 76.570312 23.59375 C 76.464844 23.226562 76.640625 22.902344 76.992188 22.722656 C 77.597656 22.40625 77.640625 23.082031 77.875 23.210938 Z M 77.875 23.210938 " fill-opacity="1" fill-rule="nonzero"/></g></g></g><g clip-path="url(#57dd607bbc)"><g clip-path="url(#d214843acd)"><g clip-path="url(#a8190c7c9d)"><path fill="#004aad" d="M 99.453125 127.917969 C 99.773438 128.433594 100.1875 128.910156 99.621094 129.363281 C 99.074219 129.796875 98.613281 129.316406 98.414062 128.945312 C 97.890625 128.097656 97.273438 127.339844 96.582031 126.59375 C 96.398438 126.378906 96.324219 126.152344 96.542969 125.917969 C 96.78125 125.710938 96.894531 125.988281 97.066406 126.089844 C 97.832031 126.726562 98.5625 127.472656 99.453125 127.917969 Z M 99.453125 127.917969 " fill-opacity="1" fill-rule="nonzero"/></g></g></g><g clip-path="url(#a1fb126d34)"><g clip-path="url(#3a8c0a7bb0)"><g clip-path="url(#4d95277640)"><path fill="#004aad" d="M 119.757812 89.84375 C 119.738281 89.820312 119.714844 89.796875 119.695312 89.773438 C 119.414062 89.304688 118.40625 88.964844 119.148438 88.277344 C 119.84375 87.628906 120.226562 88.554688 120.699219 88.855469 C 121.085938 89.105469 121.390625 89.554688 121.722656 89.9375 C 121.953125 90.199219 122.175781 90.507812 121.75 90.835938 C 121.394531 91.148438 121.074219 91.214844 120.71875 90.851562 C 120.382812 90.515625 120.09375 90.179688 119.757812 89.84375 Z M 119.757812 89.84375 " fill-opacity="1" fill-rule="nonzero"/></g></g></g><g clip-path="url(#3e4d642f72)"><g clip-path="url(#911779233d)"><g clip-path="url(#947d0c7194)"><path fill="#004aad" d="M 97.371094 96.0625 C 97.632812 96.460938 97.875 96.839844 97.53125 97.261719 C 97.164062 97.707031 96.710938 97.476562 96.417969 97.183594 C 95.765625 96.535156 95.167969 95.796875 94.566406 95.105469 C 94.398438 94.914062 94.367188 94.730469 94.558594 94.566406 C 94.703125 94.441406 94.933594 94.324219 95.058594 94.464844 C 95.703125 95.207031 96.671875 95.453125 97.371094 96.0625 Z M 97.371094 96.0625 " fill-opacity="1" fill-rule="nonzero"/></g></g></g><g clip-path="url(#9e50edb1c6)"><g clip-path="url(#804dd34c2f)"><g clip-path="url(#f0c089d7c7)"><path fill="#004aad" d="M 99.972656 110.191406 C 99.714844 109.703125 99.078125 109.167969 99.675781 108.648438 C 100.226562 108.125 100.839844 108.683594 101.234375 109.09375 C 101.570312 109.429688 101.9375 109.992188 101.363281 110.492188 C 100.8125 110.96875 100.390625 110.625 99.972656 110.191406 Z M 99.972656 110.191406 " fill-opacity="1" fill-rule="nonzero"/></g></g></g></g></g></g></svg>