<svg xmlns="http://www.w3.org/2000/svg" xmlns:xlink="http://www.w3.org/1999/xlink" width="793" zoomAndPan="magnify" viewBox="0 0 594.95996 842.24997" height="1122" preserveAspectRatio="xMidYMid meet" version="1.0"><defs><filter x="0%" y="0%" width="100%" height="100%" id="6c82414d80"><feColorMatrix values="0 0 0 0 1 0 0 0 0 1 0 0 0 0 1 0 0 0 1 0" color-interpolation-filters="sRGB"/></filter><g/><mask id="47870b74dc"><g filter="url(#6c82414d80)"><rect x="-59.495996" width="713.951952" fill="#000000" y="-84.224997" height="1010.699964" fill-opacity="0.47"/></g></mask><clipPath id="5f2ea7f38d"><path d="M 1.410156 0.886719 L 400.960938 0.886719 L 400.960938 411.523438 L 1.410156 411.523438 Z M 1.410156 0.886719 " clip-rule="nonzero"/></clipPath><clipPath id="fa927e40d3"><rect x="0" width="401" y="0" height="412"/></clipPath></defs><g mask="url(#47870b74dc)"><g transform="matrix(1, 0, 0, 1, 99, 198)"><g clip-path="url(#fa927e40d3)"><path fill="#ff3131" d="M 259.46875 150.550781 C 242.824219 143.425781 218.125 151.429688 217.082031 151.773438 C 216.175781 152.074219 215.445312 152.757812 215.085938 153.640625 C 214.722656 154.527344 214.769531 155.527344 215.210938 156.375 C 215.679688 157.273438 226.84375 178.445312 241.789062 183.511719 C 246.117188 184.972656 251.136719 185.492188 256.085938 185.492188 C 267.886719 185.492188 279.292969 182.539062 279.964844 182.359375 C 280.808594 182.136719 281.527344 181.585938 281.960938 180.832031 C 282.394531 180.074219 282.507812 179.175781 282.277344 178.335938 C 282.042969 177.5 276.40625 157.808594 259.46875 150.550781 Z M 243.878906 177.335938 C 234.675781 174.21875 226.640625 162.734375 223.023438 156.867188 C 230.28125 155.015625 246.089844 151.917969 256.902344 156.542969 C 267.203125 160.957031 272.648438 171.496094 274.832031 176.847656 C 268.210938 178.222656 253.578125 180.613281 243.878906 177.335938 Z M 243.878906 177.335938 " fill-opacity="1" fill-rule="nonzero"/><g clip-path="url(#5f2ea7f38d)"><path fill="#ff3131" d="M 399.046875 404.523438 L 328.238281 367.058594 C 324.199219 364.914062 321.867188 360.414062 322.4375 355.859375 C 323.605469 346.425781 323.695312 338.523438 322.703125 332.371094 C 321.78125 326.601562 320.035156 320.941406 318.34375 315.460938 C 315.988281 307.828125 313.765625 300.621094 313.765625 293.546875 C 313.765625 287.804688 317.210938 274.71875 323.460938 256.703125 C 324.113281 254.828125 324.441406 252.886719 324.441406 250.9375 C 324.441406 243.363281 319.613281 236.648438 312.429688 234.234375 C 311.269531 233.839844 310.089844 233.578125 308.898438 233.4375 C 311.867188 224.542969 314.289062 215.144531 316.148438 205.246094 C 322.332031 172.320312 322.457031 133.152344 316.515625 88.832031 C 316.425781 88.160156 316.128906 87.535156 315.667969 87.039062 C 302.773438 73.222656 286.679688 62.945312 267.84375 56.453125 C 249.4375 19.589844 216.957031 0.886719 171.265625 0.886719 C 137.183594 0.886719 110.230469 11.425781 91.15625 32.207031 C 57.570312 68.789062 55.039062 129.160156 58.832031 173.398438 C 62.3125 208.960938 69.867188 238.625 79.5625 254.78125 C 87.132812 267.402344 104.105469 286.125 127.425781 298.25 L 127.425781 314.75 C 127.425781 320.601562 123.472656 325.746094 117.808594 327.261719 C 103.679688 331.039062 76.769531 339.347656 55.265625 352.515625 C 23.785156 371.792969 2.992188 405.1875 2.125 406.597656 C 1.503906 407.605469 1.476562 408.871094 2.054688 409.902344 C 2.632812 410.933594 3.722656 411.570312 4.898438 411.570312 C 4.902344 411.570312 4.90625 411.570312 4.910156 411.570312 L 264.804688 410.664062 C 266.394531 410.660156 267.75 409.507812 268.011719 407.9375 C 268.269531 406.367188 267.359375 404.839844 265.855469 404.324219 L 174.914062 372.953125 C 170.757812 371.519531 168.347656 367.058594 169.425781 362.792969 C 170.378906 358.992188 173.78125 356.335938 177.695312 356.335938 C 178.359375 356.335938 179.03125 356.417969 179.699219 356.574219 C 179.703125 356.578125 179.707031 356.578125 179.707031 356.578125 L 179.761719 356.589844 C 179.765625 356.59375 179.765625 356.59375 179.769531 356.59375 C 179.773438 356.59375 179.777344 356.597656 179.785156 356.597656 L 240.839844 371.957031 C 241.109375 372.027344 241.375 372.058594 241.640625 372.058594 C 243.097656 372.058594 244.425781 371.070312 244.796875 369.59375 C 245.238281 367.847656 244.175781 366.078125 242.433594 365.636719 L 181.394531 350.28125 C 181.382812 350.277344 181.371094 350.273438 181.363281 350.273438 C 181.359375 350.269531 181.355469 350.269531 181.351562 350.269531 L 171.75 347.855469 C 169.664062 347.332031 167.90625 346.027344 166.800781 344.179688 C 165.699219 342.335938 165.378906 340.167969 165.902344 338.085938 C 166.808594 334.496094 170.019531 331.988281 173.710938 331.988281 C 174.175781 331.988281 174.664062 332.035156 175.160156 332.125 C 175.191406 332.132812 175.222656 332.128906 175.257812 332.132812 L 246.355469 350.023438 C 246.625 350.089844 246.890625 350.121094 247.15625 350.121094 C 248.613281 350.121094 249.941406 349.136719 250.3125 347.65625 C 250.753906 345.910156 249.691406 344.140625 247.949219 343.699219 L 160.050781 321.585938 C 155.742188 320.503906 153.121094 316.117188 154.203125 311.808594 C 154.648438 310.035156 155.652344 308.511719 157.121094 307.390625 C 159.050781 305.90625 161.675781 305.382812 163.976562 305.972656 L 251.875 328.085938 C 253.621094 328.53125 255.390625 327.46875 255.828125 325.722656 C 256.269531 323.976562 255.210938 322.207031 253.464844 321.765625 L 176.816406 302.480469 L 176.820312 302.476562 C 173.238281 301.578125 170.734375 298.371094 170.734375 294.679688 C 170.734375 294.007812 170.816406 293.34375 170.980469 292.699219 C 171.371094 291.132812 172.21875 289.738281 173.429688 288.660156 C 175.425781 286.886719 178.164062 286.214844 180.753906 286.863281 L 249.492188 304.15625 C 255.695312 305.714844 262.1875 304.113281 266.859375 299.871094 C 284.296875 284.054688 297.601562 263.941406 306.632812 239.832031 C 307.882812 239.808594 309.125 240 310.347656 240.414062 C 314.878906 241.9375 317.921875 246.167969 317.921875 250.9375 C 317.921875 252.164062 317.710938 253.386719 317.300781 254.570312 C 310.628906 273.796875 307.246094 286.910156 307.246094 293.546875 C 307.246094 301.601562 309.71875 309.625 312.113281 317.386719 C 313.738281 322.648438 315.417969 328.089844 316.269531 333.40625 C 317.144531 338.875 317.042969 346.363281 315.964844 355.054688 C 315.0625 362.277344 318.769531 369.414062 325.1875 372.820312 L 395.996094 410.285156 C 396.484375 410.542969 397.003906 410.664062 397.519531 410.664062 C 398.6875 410.664062 399.820312 410.035156 400.402344 408.929688 C 401.246094 407.339844 400.640625 405.367188 399.046875 404.523438 Z M 96.304688 144.1875 C 102.796875 142.269531 117.191406 138.679688 127.109375 141.148438 C 136.535156 143.488281 145.496094 154.269531 149.582031 159.820312 C 142.503906 162.265625 127.007812 166.660156 115.855469 162.941406 C 105.21875 159.394531 98.921875 149.34375 96.304688 144.1875 Z M 168.007812 265.410156 C 144.90625 264.554688 130.496094 254.5 125.054688 235.445312 C 133.542969 241.535156 148.867188 250.230469 168.007812 251.140625 Z M 174.527344 230.519531 C 197.628906 231.375 212.039062 241.425781 217.480469 260.484375 C 208.988281 254.394531 193.667969 245.695312 174.527344 244.789062 Z M 262.480469 295.042969 C 259.425781 297.816406 255.164062 298.863281 251.085938 297.832031 L 182.34375 280.542969 C 181.164062 280.246094 179.972656 280.101562 178.789062 280.101562 C 177.339844 280.101562 175.902344 280.320312 174.527344 280.738281 L 174.527344 251.320312 C 200.960938 252.742188 220.023438 270.882812 220.214844 271.070312 C 220.839844 271.675781 221.660156 271.992188 222.488281 271.992188 C 222.984375 271.992188 223.488281 271.878906 223.953125 271.644531 C 225.195312 271.023438 225.902344 269.679688 225.71875 268.304688 C 221.980469 240.285156 204.304688 225.023438 174.527344 223.992188 L 174.527344 56.253906 C 207.214844 52.535156 234.296875 53.765625 257.246094 60.003906 C 259.789062 60.695312 262.226562 61.433594 264.5 62.191406 C 282.503906 68.1875 297.875 77.789062 310.195312 90.734375 C 315.902344 133.941406 315.75 172.058594 309.738281 204.046875 C 302.511719 242.535156 286.609375 273.152344 262.480469 295.042969 Z M 262.480469 295.042969 " fill-opacity="1" fill-rule="nonzero"/></g></g></g></g><g fill="#ff0000" fill-opacity="1"><g transform="translate(188.282991, 394.341213)"><g><path d="M 27.484375 -80.125 L 35.21875 -77.796875 C 32.382812 -70.316406 29.03125 -62.960938 25.15625 -55.734375 L 25.15625 8.90625 L 17.421875 8.90625 L 17.421875 -43.359375 C 14.328125 -39.222656 11.097656 -35.347656 7.734375 -31.734375 L 3.875 -39.484375 C 14.96875 -52.390625 22.835938 -65.9375 27.484375 -80.125 Z M 47.21875 -80.125 L 54.578125 -77.796875 C 53.546875 -73.410156 52.253906 -69.285156 50.703125 -65.421875 L 92.90625 -65.421875 L 92.90625 -58.0625 C 90.582031 -52.90625 87.867188 -48.003906 84.765625 -43.359375 L 78.578125 -47.609375 C 80.898438 -51.222656 82.835938 -54.707031 84.390625 -58.0625 L 48 -58.0625 C 45.675781 -51.613281 42.453125 -45.289062 38.328125 -39.09375 L 31.734375 -44.125 C 38.960938 -55.21875 44.125 -67.21875 47.21875 -80.125 Z M 60.765625 -51.09375 L 68.515625 -51.09375 L 68.515625 -0.390625 C 68.515625 3.222656 67.867188 5.738281 66.578125 7.15625 C 65.285156 8.582031 62.832031 9.296875 59.21875 9.296875 C 54.570312 9.296875 50.445312 9.035156 46.84375 8.515625 L 45.28125 0.78125 C 49.925781 1.550781 54.570312 1.9375 59.21875 1.9375 C 60.25 1.9375 60.765625 0.773438 60.765625 -1.546875 Z M 83.21875 -38.328125 C 87.863281 -27.742188 90.960938 -16.90625 92.515625 -5.8125 L 84.390625 -3.484375 C 82.835938 -15.359375 80 -26.328125 75.875 -36.390625 Z M 44.90625 -38.328125 L 52.25 -36.390625 C 50.707031 -24.253906 46.582031 -13.023438 39.875 -2.703125 L 32.90625 -6.578125 C 39.351562 -17.160156 43.351562 -27.742188 44.90625 -38.328125 Z M 44.90625 -38.328125 "/></g></g></g><g fill="#ff0000" fill-opacity="1"><g transform="translate(297.986263, 394.341213)"><g><path d="M 7.734375 -67.734375 L 20.515625 -67.734375 C 18.960938 -70.835938 17.15625 -73.804688 15.09375 -76.640625 L 22.0625 -79.734375 C 24.382812 -76.128906 26.445312 -72.128906 28.25 -67.734375 L 36.765625 -67.734375 L 36.765625 -60.765625 C 33.410156 -53.546875 29.929688 -47.226562 26.328125 -41.8125 L 26.328125 -38.328125 C 27.359375 -37.285156 28.390625 -36.378906 29.421875 -35.609375 C 32.003906 -38.703125 34.066406 -41.925781 35.609375 -45.28125 L 42.1875 -41.8125 C 39.351562 -37.414062 36.644531 -33.929688 34.0625 -31.359375 C 35.863281 -29.804688 37.539062 -28.128906 39.09375 -26.328125 L 34.0625 -19.734375 C 31.476562 -23.609375 28.898438 -26.96875 26.328125 -29.8125 L 26.328125 9.296875 L 18.96875 9.296875 L 18.96875 -32.90625 C 15.09375 -28.769531 11.476562 -25.671875 8.125 -23.609375 L 3.484375 -30.578125 C 13.804688 -37.023438 22.320312 -47.085938 29.03125 -60.765625 L 7.734375 -60.765625 Z M 62.328125 -67.734375 L 62.328125 -80.125 L 70.0625 -80.125 L 70.0625 -67.734375 L 91.734375 -67.734375 L 91.734375 -60.765625 C 91.734375 -58.960938 90.054688 -53.929688 86.703125 -45.671875 L 79.359375 -48 C 80.898438 -52.125 82.316406 -56.253906 83.609375 -60.390625 L 70.0625 -60.390625 L 70.0625 -41.421875 L 89.03125 -41.421875 C 87.738281 -28.773438 83.09375 -17.9375 75.09375 -8.90625 C 80 -5.03125 86.320312 -1.414062 94.0625 1.9375 L 88.25 9.296875 C 81.28125 5.679688 75.085938 1.421875 69.671875 -3.484375 C 63.992188 1.421875 57.414062 5.421875 49.9375 8.515625 L 45.671875 1.15625 C 52.898438 -1.414062 58.96875 -4.769531 63.875 -8.90625 C 59.476562 -13.800781 55.601562 -19.476562 52.25 -25.9375 L 58.453125 -30.1875 C 61.546875 -24 65.285156 -18.582031 69.671875 -13.9375 C 75.085938 -20.382812 78.441406 -27.222656 79.734375 -34.453125 L 51.09375 -34.453125 L 51.09375 -32.125 C 51.09375 -16.644531 47.09375 -2.96875 39.09375 8.90625 L 32.515625 4.640625 C 36.640625 -2.578125 39.539062 -9.085938 41.21875 -14.890625 C 42.894531 -20.703125 43.734375 -27.476562 43.734375 -35.21875 L 43.734375 -67.734375 Z M 51.09375 -41.421875 L 62.328125 -41.421875 L 62.328125 -60.390625 L 51.09375 -60.390625 Z M 51.09375 -41.421875 "/></g></g></g><g fill="#00ffff" fill-opacity="1"><g transform="translate(198.119421, 393.13344)"><g><path d="M 27.484375 -80.125 L 35.21875 -77.796875 C 32.382812 -70.316406 29.03125 -62.960938 25.15625 -55.734375 L 25.15625 8.90625 L 17.421875 8.90625 L 17.421875 -43.359375 C 14.328125 -39.222656 11.097656 -35.347656 7.734375 -31.734375 L 3.875 -39.484375 C 14.96875 -52.390625 22.835938 -65.9375 27.484375 -80.125 Z M 47.21875 -80.125 L 54.578125 -77.796875 C 53.546875 -73.410156 52.253906 -69.285156 50.703125 -65.421875 L 92.90625 -65.421875 L 92.90625 -58.0625 C 90.582031 -52.90625 87.867188 -48.003906 84.765625 -43.359375 L 78.578125 -47.609375 C 80.898438 -51.222656 82.835938 -54.707031 84.390625 -58.0625 L 48 -58.0625 C 45.675781 -51.613281 42.453125 -45.289062 38.328125 -39.09375 L 31.734375 -44.125 C 38.960938 -55.21875 44.125 -67.21875 47.21875 -80.125 Z M 60.765625 -51.09375 L 68.515625 -51.09375 L 68.515625 -0.390625 C 68.515625 3.222656 67.867188 5.738281 66.578125 7.15625 C 65.285156 8.582031 62.832031 9.296875 59.21875 9.296875 C 54.570312 9.296875 50.445312 9.035156 46.84375 8.515625 L 45.28125 0.78125 C 49.925781 1.550781 54.570312 1.9375 59.21875 1.9375 C 60.25 1.9375 60.765625 0.773438 60.765625 -1.546875 Z M 83.21875 -38.328125 C 87.863281 -27.742188 90.960938 -16.90625 92.515625 -5.8125 L 84.390625 -3.484375 C 82.835938 -15.359375 80 -26.328125 75.875 -36.390625 Z M 44.90625 -38.328125 L 52.25 -36.390625 C 50.707031 -24.253906 46.582031 -13.023438 39.875 -2.703125 L 32.90625 -6.578125 C 39.351562 -17.160156 43.351562 -27.742188 44.90625 -38.328125 Z M 44.90625 -38.328125 "/></g></g></g><g fill="#00ffff" fill-opacity="1"><g transform="translate(307.822693, 393.13344)"><g><path d="M 7.734375 -67.734375 L 20.515625 -67.734375 C 18.960938 -70.835938 17.15625 -73.804688 15.09375 -76.640625 L 22.0625 -79.734375 C 24.382812 -76.128906 26.445312 -72.128906 28.25 -67.734375 L 36.765625 -67.734375 L 36.765625 -60.765625 C 33.410156 -53.546875 29.929688 -47.226562 26.328125 -41.8125 L 26.328125 -38.328125 C 27.359375 -37.285156 28.390625 -36.378906 29.421875 -35.609375 C 32.003906 -38.703125 34.066406 -41.925781 35.609375 -45.28125 L 42.1875 -41.8125 C 39.351562 -37.414062 36.644531 -33.929688 34.0625 -31.359375 C 35.863281 -29.804688 37.539062 -28.128906 39.09375 -26.328125 L 34.0625 -19.734375 C 31.476562 -23.609375 28.898438 -26.96875 26.328125 -29.8125 L 26.328125 9.296875 L 18.96875 9.296875 L 18.96875 -32.90625 C 15.09375 -28.769531 11.476562 -25.671875 8.125 -23.609375 L 3.484375 -30.578125 C 13.804688 -37.023438 22.320312 -47.085938 29.03125 -60.765625 L 7.734375 -60.765625 Z M 62.328125 -67.734375 L 62.328125 -80.125 L 70.0625 -80.125 L 70.0625 -67.734375 L 91.734375 -67.734375 L 91.734375 -60.765625 C 91.734375 -58.960938 90.054688 -53.929688 86.703125 -45.671875 L 79.359375 -48 C 80.898438 -52.125 82.316406 -56.253906 83.609375 -60.390625 L 70.0625 -60.390625 L 70.0625 -41.421875 L 89.03125 -41.421875 C 87.738281 -28.773438 83.09375 -17.9375 75.09375 -8.90625 C 80 -5.03125 86.320312 -1.414062 94.0625 1.9375 L 88.25 9.296875 C 81.28125 5.679688 75.085938 1.421875 69.671875 -3.484375 C 63.992188 1.421875 57.414062 5.421875 49.9375 8.515625 L 45.671875 1.15625 C 52.898438 -1.414062 58.96875 -4.769531 63.875 -8.90625 C 59.476562 -13.800781 55.601562 -19.476562 52.25 -25.9375 L 58.453125 -30.1875 C 61.546875 -24 65.285156 -18.582031 69.671875 -13.9375 C 75.085938 -20.382812 78.441406 -27.222656 79.734375 -34.453125 L 51.09375 -34.453125 L 51.09375 -32.125 C 51.09375 -16.644531 47.09375 -2.96875 39.09375 8.90625 L 32.515625 4.640625 C 36.640625 -2.578125 39.539062 -9.085938 41.21875 -14.890625 C 42.894531 -20.703125 43.734375 -27.476562 43.734375 -35.21875 L 43.734375 -67.734375 Z M 51.09375 -41.421875 L 62.328125 -41.421875 L 62.328125 -60.390625 L 51.09375 -60.390625 Z M 51.09375 -41.421875 "/></g></g></g><g fill="#88ff55" fill-opacity="1"><g transform="translate(193.201206, 393.737325)"><g><path d="M 27.484375 -80.125 L 35.21875 -77.796875 C 32.382812 -70.316406 29.03125 -62.960938 25.15625 -55.734375 L 25.15625 8.90625 L 17.421875 8.90625 L 17.421875 -43.359375 C 14.328125 -39.222656 11.097656 -35.347656 7.734375 -31.734375 L 3.875 -39.484375 C 14.96875 -52.390625 22.835938 -65.9375 27.484375 -80.125 Z M 47.21875 -80.125 L 54.578125 -77.796875 C 53.546875 -73.410156 52.253906 -69.285156 50.703125 -65.421875 L 92.90625 -65.421875 L 92.90625 -58.0625 C 90.582031 -52.90625 87.867188 -48.003906 84.765625 -43.359375 L 78.578125 -47.609375 C 80.898438 -51.222656 82.835938 -54.707031 84.390625 -58.0625 L 48 -58.0625 C 45.675781 -51.613281 42.453125 -45.289062 38.328125 -39.09375 L 31.734375 -44.125 C 38.960938 -55.21875 44.125 -67.21875 47.21875 -80.125 Z M 60.765625 -51.09375 L 68.515625 -51.09375 L 68.515625 -0.390625 C 68.515625 3.222656 67.867188 5.738281 66.578125 7.15625 C 65.285156 8.582031 62.832031 9.296875 59.21875 9.296875 C 54.570312 9.296875 50.445312 9.035156 46.84375 8.515625 L 45.28125 0.78125 C 49.925781 1.550781 54.570312 1.9375 59.21875 1.9375 C 60.25 1.9375 60.765625 0.773438 60.765625 -1.546875 Z M 83.21875 -38.328125 C 87.863281 -27.742188 90.960938 -16.90625 92.515625 -5.8125 L 84.390625 -3.484375 C 82.835938 -15.359375 80 -26.328125 75.875 -36.390625 Z M 44.90625 -38.328125 L 52.25 -36.390625 C 50.707031 -24.253906 46.582031 -13.023438 39.875 -2.703125 L 32.90625 -6.578125 C 39.351562 -17.160156 43.351562 -27.742188 44.90625 -38.328125 Z M 44.90625 -38.328125 "/></g></g></g><g fill="#88ff55" fill-opacity="1"><g transform="translate(302.904478, 393.737325)"><g><path d="M 7.734375 -67.734375 L 20.515625 -67.734375 C 18.960938 -70.835938 17.15625 -73.804688 15.09375 -76.640625 L 22.0625 -79.734375 C 24.382812 -76.128906 26.445312 -72.128906 28.25 -67.734375 L 36.765625 -67.734375 L 36.765625 -60.765625 C 33.410156 -53.546875 29.929688 -47.226562 26.328125 -41.8125 L 26.328125 -38.328125 C 27.359375 -37.285156 28.390625 -36.378906 29.421875 -35.609375 C 32.003906 -38.703125 34.066406 -41.925781 35.609375 -45.28125 L 42.1875 -41.8125 C 39.351562 -37.414062 36.644531 -33.929688 34.0625 -31.359375 C 35.863281 -29.804688 37.539062 -28.128906 39.09375 -26.328125 L 34.0625 -19.734375 C 31.476562 -23.609375 28.898438 -26.96875 26.328125 -29.8125 L 26.328125 9.296875 L 18.96875 9.296875 L 18.96875 -32.90625 C 15.09375 -28.769531 11.476562 -25.671875 8.125 -23.609375 L 3.484375 -30.578125 C 13.804688 -37.023438 22.320312 -47.085938 29.03125 -60.765625 L 7.734375 -60.765625 Z M 62.328125 -67.734375 L 62.328125 -80.125 L 70.0625 -80.125 L 70.0625 -67.734375 L 91.734375 -67.734375 L 91.734375 -60.765625 C 91.734375 -58.960938 90.054688 -53.929688 86.703125 -45.671875 L 79.359375 -48 C 80.898438 -52.125 82.316406 -56.253906 83.609375 -60.390625 L 70.0625 -60.390625 L 70.0625 -41.421875 L 89.03125 -41.421875 C 87.738281 -28.773438 83.09375 -17.9375 75.09375 -8.90625 C 80 -5.03125 86.320312 -1.414062 94.0625 1.9375 L 88.25 9.296875 C 81.28125 5.679688 75.085938 1.421875 69.671875 -3.484375 C 63.992188 1.421875 57.414062 5.421875 49.9375 8.515625 L 45.671875 1.15625 C 52.898438 -1.414062 58.96875 -4.769531 63.875 -8.90625 C 59.476562 -13.800781 55.601562 -19.476562 52.25 -25.9375 L 58.453125 -30.1875 C 61.546875 -24 65.285156 -18.582031 69.671875 -13.9375 C 75.085938 -20.382812 78.441406 -27.222656 79.734375 -34.453125 L 51.09375 -34.453125 L 51.09375 -32.125 C 51.09375 -16.644531 47.09375 -2.96875 39.09375 8.90625 L 32.515625 4.640625 C 36.640625 -2.578125 39.539062 -9.085938 41.21875 -14.890625 C 42.894531 -20.703125 43.734375 -27.476562 43.734375 -35.21875 L 43.734375 -67.734375 Z M 51.09375 -41.421875 L 62.328125 -41.421875 L 62.328125 -60.390625 L 51.09375 -60.390625 Z M 51.09375 -41.421875 "/></g></g></g><g fill="#ff0000" fill-opacity="1"><g transform="translate(151.460311, 483.511803)"><g><path d="M 45.28125 -78.578125 L 45.28125 -44.515625 L 15.09375 -44.515625 L 15.09375 8.90625 L 8.125 8.90625 L 8.125 -78.578125 Z M 15.09375 -64.640625 L 37.546875 -64.640625 L 37.546875 -71.609375 L 15.09375 -71.609375 Z M 15.09375 -51.484375 L 37.546875 -51.484375 L 37.546875 -58.453125 L 15.09375 -58.453125 Z M 91.734375 -77.796875 L 91.734375 -2.328125 C 91.734375 1.285156 90.957031 3.992188 89.40625 5.796875 C 87.863281 7.609375 85.546875 8.515625 82.453125 8.515625 C 78.835938 8.515625 74.578125 8.253906 69.671875 7.734375 L 67.734375 0 C 73.160156 0.519531 77.550781 0.78125 80.90625 0.78125 C 82.96875 0.78125 84 -1.023438 84 -4.640625 L 84 -44.515625 L 53.421875 -44.515625 L 53.421875 -77.796875 Z M 61.15625 -64.640625 L 84 -64.640625 L 84 -71.21875 L 61.15625 -71.21875 Z M 84 -51.875 L 84 -58.453125 L 61.15625 -58.453125 L 61.15625 -51.875 Z M 25.546875 -40.25 L 72.765625 -40.25 L 72.765625 -33.671875 L 63.09375 -33.671875 L 63.09375 -22.0625 L 76.25 -22.0625 L 76.25 -15.09375 L 63.09375 -15.09375 L 63.09375 5.421875 L 55.734375 5.421875 L 55.734375 -15.09375 L 41.421875 -15.09375 C 39.867188 -5.289062 34.707031 1.800781 25.9375 6.1875 L 21.296875 0 C 28.003906 -3.09375 32.128906 -8.125 33.671875 -15.09375 L 21.671875 -15.09375 L 21.671875 -22.0625 L 34.453125 -22.0625 L 34.453125 -33.671875 L 25.546875 -33.671875 Z M 55.734375 -22.0625 L 55.734375 -33.671875 L 41.8125 -33.671875 L 41.8125 -22.0625 Z M 55.734375 -22.0625 "/></g></g></g><g fill="#ff0000" fill-opacity="1"><g transform="translate(261.163583, 483.511803)"><g><path d="M 32.125 -76.640625 L 32.125 -70.0625 L 23.609375 -47.609375 C 29.023438 -39.609375 31.734375 -31.738281 31.734375 -24 C 31.734375 -19.09375 30.765625 -15.414062 28.828125 -12.96875 C 26.898438 -10.519531 24.128906 -9.296875 20.515625 -9.296875 C 19.484375 -9.296875 18.191406 -9.550781 16.640625 -10.0625 L 15.484375 -17.03125 C 17.546875 -16.507812 19.222656 -16.25 20.515625 -16.25 C 21.804688 -16.25 22.773438 -16.894531 23.421875 -18.1875 C 24.066406 -19.476562 24.390625 -21.414062 24.390625 -24 C 24.390625 -31.476562 21.550781 -38.960938 15.875 -46.453125 L 24.78125 -70.0625 L 13.9375 -70.0625 L 13.9375 9.296875 L 6.578125 9.296875 L 6.578125 -76.640625 Z M 60 -80.515625 L 67.359375 -78.1875 L 65.796875 -75.09375 C 74.578125 -65.539062 84 -58.1875 94.0625 -53.03125 L 89.421875 -45.28125 C 79.867188 -50.707031 70.707031 -58.453125 61.9375 -68.515625 C 55.476562 -58.710938 47.476562 -50.710938 37.9375 -44.515625 L 32.515625 -49.9375 C 44.640625 -58.707031 53.800781 -68.898438 60 -80.515625 Z M 49.15625 -51.09375 L 77.421875 -51.09375 L 77.421875 -44.125 L 66.578125 -44.125 L 66.578125 -33.671875 L 90.578125 -33.671875 L 90.578125 -26.328125 L 66.578125 -26.328125 L 66.578125 -1.15625 C 66.578125 2.707031 65.800781 5.347656 64.25 6.765625 C 62.707031 8.191406 59.867188 8.90625 55.734375 8.90625 C 52.898438 8.90625 50.320312 8.644531 48 8.125 L 46.453125 0 C 49.546875 0.769531 52.640625 1.15625 55.734375 1.15625 C 57.804688 1.15625 58.84375 -0.128906 58.84375 -2.703125 L 58.84375 -26.328125 L 33.671875 -26.328125 L 33.671875 -33.671875 L 58.84375 -33.671875 L 58.84375 -44.125 L 49.15625 -44.125 Z M 45.28125 -22.453125 L 51.875 -18.578125 C 46.707031 -9.035156 41.414062 -1.550781 36 3.875 L 29.421875 -1.9375 C 35.867188 -8.382812 41.15625 -15.222656 45.28125 -22.453125 Z M 78.96875 -21.671875 C 85.414062 -14.960938 90.703125 -7.867188 94.828125 -0.390625 L 87.875 3.484375 C 84 -3.742188 78.835938 -10.84375 72.390625 -17.8125 Z M 78.96875 -21.671875 "/></g></g></g><g fill="#ff0000" fill-opacity="1"><g transform="translate(370.866855, 483.511803)"><g><path d="M 10.453125 -75.09375 L 87.875 -75.09375 L 87.875 -66.96875 C 78.0625 -58.96875 67.09375 -51.613281 54.96875 -44.90625 L 54.96875 1.546875 C 54.96875 4.128906 54.0625 6.066406 52.25 7.359375 C 50.445312 8.648438 47.867188 9.296875 44.515625 9.296875 C 39.867188 9.296875 35.222656 8.773438 30.578125 7.734375 L 29.421875 0 C 33.285156 1.03125 37.671875 1.546875 42.578125 1.546875 C 45.671875 1.546875 47.21875 1.03125 47.21875 0 L 47.21875 -48.765625 C 58.320312 -55.222656 68.128906 -61.546875 76.640625 -67.734375 L 10.453125 -67.734375 Z M 10.453125 -75.09375 "/></g></g></g><g fill="#ff0000" fill-opacity="1"><g transform="translate(480.570116, 483.511803)"><g><path d="M 52.640625 -20.125 L 46.84375 -20.125 L 44.125 -70.84375 L 54.96875 -70.84375 Z M 55.734375 -5.421875 C 55.734375 -3.097656 55.21875 -1.351562 54.1875 -0.1875 C 53.15625 0.96875 51.609375 1.546875 49.546875 1.546875 C 47.484375 1.546875 45.9375 0.96875 44.90625 -0.1875 C 43.875 -1.351562 43.359375 -3.097656 43.359375 -5.421875 C 43.359375 -7.742188 43.875 -9.421875 44.90625 -10.453125 C 45.9375 -11.484375 47.484375 -12 49.546875 -12 C 51.609375 -12 53.15625 -11.484375 54.1875 -10.453125 C 55.21875 -9.421875 55.734375 -7.742188 55.734375 -5.421875 Z M 55.734375 -5.421875 "/></g></g></g><g fill="#00ffff" fill-opacity="1"><g transform="translate(161.296741, 482.304029)"><g><path d="M 45.28125 -78.578125 L 45.28125 -44.515625 L 15.09375 -44.515625 L 15.09375 8.90625 L 8.125 8.90625 L 8.125 -78.578125 Z M 15.09375 -64.640625 L 37.546875 -64.640625 L 37.546875 -71.609375 L 15.09375 -71.609375 Z M 15.09375 -51.484375 L 37.546875 -51.484375 L 37.546875 -58.453125 L 15.09375 -58.453125 Z M 91.734375 -77.796875 L 91.734375 -2.328125 C 91.734375 1.285156 90.957031 3.992188 89.40625 5.796875 C 87.863281 7.609375 85.546875 8.515625 82.453125 8.515625 C 78.835938 8.515625 74.578125 8.253906 69.671875 7.734375 L 67.734375 0 C 73.160156 0.519531 77.550781 0.78125 80.90625 0.78125 C 82.96875 0.78125 84 -1.023438 84 -4.640625 L 84 -44.515625 L 53.421875 -44.515625 L 53.421875 -77.796875 Z M 61.15625 -64.640625 L 84 -64.640625 L 84 -71.21875 L 61.15625 -71.21875 Z M 84 -51.875 L 84 -58.453125 L 61.15625 -58.453125 L 61.15625 -51.875 Z M 25.546875 -40.25 L 72.765625 -40.25 L 72.765625 -33.671875 L 63.09375 -33.671875 L 63.09375 -22.0625 L 76.25 -22.0625 L 76.25 -15.09375 L 63.09375 -15.09375 L 63.09375 5.421875 L 55.734375 5.421875 L 55.734375 -15.09375 L 41.421875 -15.09375 C 39.867188 -5.289062 34.707031 1.800781 25.9375 6.1875 L 21.296875 0 C 28.003906 -3.09375 32.128906 -8.125 33.671875 -15.09375 L 21.671875 -15.09375 L 21.671875 -22.0625 L 34.453125 -22.0625 L 34.453125 -33.671875 L 25.546875 -33.671875 Z M 55.734375 -22.0625 L 55.734375 -33.671875 L 41.8125 -33.671875 L 41.8125 -22.0625 Z M 55.734375 -22.0625 "/></g></g></g><g fill="#00ffff" fill-opacity="1"><g transform="translate(271.000013, 482.304029)"><g><path d="M 32.125 -76.640625 L 32.125 -70.0625 L 23.609375 -47.609375 C 29.023438 -39.609375 31.734375 -31.738281 31.734375 -24 C 31.734375 -19.09375 30.765625 -15.414062 28.828125 -12.96875 C 26.898438 -10.519531 24.128906 -9.296875 20.515625 -9.296875 C 19.484375 -9.296875 18.191406 -9.550781 16.640625 -10.0625 L 15.484375 -17.03125 C 17.546875 -16.507812 19.222656 -16.25 20.515625 -16.25 C 21.804688 -16.25 22.773438 -16.894531 23.421875 -18.1875 C 24.066406 -19.476562 24.390625 -21.414062 24.390625 -24 C 24.390625 -31.476562 21.550781 -38.960938 15.875 -46.453125 L 24.78125 -70.0625 L 13.9375 -70.0625 L 13.9375 9.296875 L 6.578125 9.296875 L 6.578125 -76.640625 Z M 60 -80.515625 L 67.359375 -78.1875 L 65.796875 -75.09375 C 74.578125 -65.539062 84 -58.1875 94.0625 -53.03125 L 89.421875 -45.28125 C 79.867188 -50.707031 70.707031 -58.453125 61.9375 -68.515625 C 55.476562 -58.710938 47.476562 -50.710938 37.9375 -44.515625 L 32.515625 -49.9375 C 44.640625 -58.707031 53.800781 -68.898438 60 -80.515625 Z M 49.15625 -51.09375 L 77.421875 -51.09375 L 77.421875 -44.125 L 66.578125 -44.125 L 66.578125 -33.671875 L 90.578125 -33.671875 L 90.578125 -26.328125 L 66.578125 -26.328125 L 66.578125 -1.15625 C 66.578125 2.707031 65.800781 5.347656 64.25 6.765625 C 62.707031 8.191406 59.867188 8.90625 55.734375 8.90625 C 52.898438 8.90625 50.320312 8.644531 48 8.125 L 46.453125 0 C 49.546875 0.769531 52.640625 1.15625 55.734375 1.15625 C 57.804688 1.15625 58.84375 -0.128906 58.84375 -2.703125 L 58.84375 -26.328125 L 33.671875 -26.328125 L 33.671875 -33.671875 L 58.84375 -33.671875 L 58.84375 -44.125 L 49.15625 -44.125 Z M 45.28125 -22.453125 L 51.875 -18.578125 C 46.707031 -9.035156 41.414062 -1.550781 36 3.875 L 29.421875 -1.9375 C 35.867188 -8.382812 41.15625 -15.222656 45.28125 -22.453125 Z M 78.96875 -21.671875 C 85.414062 -14.960938 90.703125 -7.867188 94.828125 -0.390625 L 87.875 3.484375 C 84 -3.742188 78.835938 -10.84375 72.390625 -17.8125 Z M 78.96875 -21.671875 "/></g></g></g><g fill="#00ffff" fill-opacity="1"><g transform="translate(380.703285, 482.304029)"><g><path d="M 10.453125 -75.09375 L 87.875 -75.09375 L 87.875 -66.96875 C 78.0625 -58.96875 67.09375 -51.613281 54.96875 -44.90625 L 54.96875 1.546875 C 54.96875 4.128906 54.0625 6.066406 52.25 7.359375 C 50.445312 8.648438 47.867188 9.296875 44.515625 9.296875 C 39.867188 9.296875 35.222656 8.773438 30.578125 7.734375 L 29.421875 0 C 33.285156 1.03125 37.671875 1.546875 42.578125 1.546875 C 45.671875 1.546875 47.21875 1.03125 47.21875 0 L 47.21875 -48.765625 C 58.320312 -55.222656 68.128906 -61.546875 76.640625 -67.734375 L 10.453125 -67.734375 Z M 10.453125 -75.09375 "/></g></g></g><g fill="#00ffff" fill-opacity="1"><g transform="translate(490.406546, 482.304029)"><g><path d="M 52.640625 -20.125 L 46.84375 -20.125 L 44.125 -70.84375 L 54.96875 -70.84375 Z M 55.734375 -5.421875 C 55.734375 -3.097656 55.21875 -1.351562 54.1875 -0.1875 C 53.15625 0.96875 51.609375 1.546875 49.546875 1.546875 C 47.484375 1.546875 45.9375 0.96875 44.90625 -0.1875 C 43.875 -1.351562 43.359375 -3.097656 43.359375 -5.421875 C 43.359375 -7.742188 43.875 -9.421875 44.90625 -10.453125 C 45.9375 -11.484375 47.484375 -12 49.546875 -12 C 51.609375 -12 53.15625 -11.484375 54.1875 -10.453125 C 55.21875 -9.421875 55.734375 -7.742188 55.734375 -5.421875 Z M 55.734375 -5.421875 "/></g></g></g><g fill="#88ff55" fill-opacity="1"><g transform="translate(156.378526, 482.907915)"><g><path d="M 45.28125 -78.578125 L 45.28125 -44.515625 L 15.09375 -44.515625 L 15.09375 8.90625 L 8.125 8.90625 L 8.125 -78.578125 Z M 15.09375 -64.640625 L 37.546875 -64.640625 L 37.546875 -71.609375 L 15.09375 -71.609375 Z M 15.09375 -51.484375 L 37.546875 -51.484375 L 37.546875 -58.453125 L 15.09375 -58.453125 Z M 91.734375 -77.796875 L 91.734375 -2.328125 C 91.734375 1.285156 90.957031 3.992188 89.40625 5.796875 C 87.863281 7.609375 85.546875 8.515625 82.453125 8.515625 C 78.835938 8.515625 74.578125 8.253906 69.671875 7.734375 L 67.734375 0 C 73.160156 0.519531 77.550781 0.78125 80.90625 0.78125 C 82.96875 0.78125 84 -1.023438 84 -4.640625 L 84 -44.515625 L 53.421875 -44.515625 L 53.421875 -77.796875 Z M 61.15625 -64.640625 L 84 -64.640625 L 84 -71.21875 L 61.15625 -71.21875 Z M 84 -51.875 L 84 -58.453125 L 61.15625 -58.453125 L 61.15625 -51.875 Z M 25.546875 -40.25 L 72.765625 -40.25 L 72.765625 -33.671875 L 63.09375 -33.671875 L 63.09375 -22.0625 L 76.25 -22.0625 L 76.25 -15.09375 L 63.09375 -15.09375 L 63.09375 5.421875 L 55.734375 5.421875 L 55.734375 -15.09375 L 41.421875 -15.09375 C 39.867188 -5.289062 34.707031 1.800781 25.9375 6.1875 L 21.296875 0 C 28.003906 -3.09375 32.128906 -8.125 33.671875 -15.09375 L 21.671875 -15.09375 L 21.671875 -22.0625 L 34.453125 -22.0625 L 34.453125 -33.671875 L 25.546875 -33.671875 Z M 55.734375 -22.0625 L 55.734375 -33.671875 L 41.8125 -33.671875 L 41.8125 -22.0625 Z M 55.734375 -22.0625 "/></g></g></g><g fill="#88ff55" fill-opacity="1"><g transform="translate(266.081798, 482.907915)"><g><path d="M 32.125 -76.640625 L 32.125 -70.0625 L 23.609375 -47.609375 C 29.023438 -39.609375 31.734375 -31.738281 31.734375 -24 C 31.734375 -19.09375 30.765625 -15.414062 28.828125 -12.96875 C 26.898438 -10.519531 24.128906 -9.296875 20.515625 -9.296875 C 19.484375 -9.296875 18.191406 -9.550781 16.640625 -10.0625 L 15.484375 -17.03125 C 17.546875 -16.507812 19.222656 -16.25 20.515625 -16.25 C 21.804688 -16.25 22.773438 -16.894531 23.421875 -18.1875 C 24.066406 -19.476562 24.390625 -21.414062 24.390625 -24 C 24.390625 -31.476562 21.550781 -38.960938 15.875 -46.453125 L 24.78125 -70.0625 L 13.9375 -70.0625 L 13.9375 9.296875 L 6.578125 9.296875 L 6.578125 -76.640625 Z M 60 -80.515625 L 67.359375 -78.1875 L 65.796875 -75.09375 C 74.578125 -65.539062 84 -58.1875 94.0625 -53.03125 L 89.421875 -45.28125 C 79.867188 -50.707031 70.707031 -58.453125 61.9375 -68.515625 C 55.476562 -58.710938 47.476562 -50.710938 37.9375 -44.515625 L 32.515625 -49.9375 C 44.640625 -58.707031 53.800781 -68.898438 60 -80.515625 Z M 49.15625 -51.09375 L 77.421875 -51.09375 L 77.421875 -44.125 L 66.578125 -44.125 L 66.578125 -33.671875 L 90.578125 -33.671875 L 90.578125 -26.328125 L 66.578125 -26.328125 L 66.578125 -1.15625 C 66.578125 2.707031 65.800781 5.347656 64.25 6.765625 C 62.707031 8.191406 59.867188 8.90625 55.734375 8.90625 C 52.898438 8.90625 50.320312 8.644531 48 8.125 L 46.453125 0 C 49.546875 0.769531 52.640625 1.15625 55.734375 1.15625 C 57.804688 1.15625 58.84375 -0.128906 58.84375 -2.703125 L 58.84375 -26.328125 L 33.671875 -26.328125 L 33.671875 -33.671875 L 58.84375 -33.671875 L 58.84375 -44.125 L 49.15625 -44.125 Z M 45.28125 -22.453125 L 51.875 -18.578125 C 46.707031 -9.035156 41.414062 -1.550781 36 3.875 L 29.421875 -1.9375 C 35.867188 -8.382812 41.15625 -15.222656 45.28125 -22.453125 Z M 78.96875 -21.671875 C 85.414062 -14.960938 90.703125 -7.867188 94.828125 -0.390625 L 87.875 3.484375 C 84 -3.742188 78.835938 -10.84375 72.390625 -17.8125 Z M 78.96875 -21.671875 "/></g></g></g><g fill="#88ff55" fill-opacity="1"><g transform="translate(375.78507, 482.907915)"><g><path d="M 10.453125 -75.09375 L 87.875 -75.09375 L 87.875 -66.96875 C 78.0625 -58.96875 67.09375 -51.613281 54.96875 -44.90625 L 54.96875 1.546875 C 54.96875 4.128906 54.0625 6.066406 52.25 7.359375 C 50.445312 8.648438 47.867188 9.296875 44.515625 9.296875 C 39.867188 9.296875 35.222656 8.773438 30.578125 7.734375 L 29.421875 0 C 33.285156 1.03125 37.671875 1.546875 42.578125 1.546875 C 45.671875 1.546875 47.21875 1.03125 47.21875 0 L 47.21875 -48.765625 C 58.320312 -55.222656 68.128906 -61.546875 76.640625 -67.734375 L 10.453125 -67.734375 Z M 10.453125 -75.09375 "/></g></g></g><g fill="#88ff55" fill-opacity="1"><g transform="translate(485.488331, 482.907915)"><g><path d="M 52.640625 -20.125 L 46.84375 -20.125 L 44.125 -70.84375 L 54.96875 -70.84375 Z M 55.734375 -5.421875 C 55.734375 -3.097656 55.21875 -1.351562 54.1875 -0.1875 C 53.15625 0.96875 51.609375 1.546875 49.546875 1.546875 C 47.484375 1.546875 45.9375 0.96875 44.90625 -0.1875 C 43.875 -1.351562 43.359375 -3.097656 43.359375 -5.421875 C 43.359375 -7.742188 43.875 -9.421875 44.90625 -10.453125 C 45.9375 -11.484375 47.484375 -12 49.546875 -12 C 51.609375 -12 53.15625 -11.484375 54.1875 -10.453125 C 55.21875 -9.421875 55.734375 -7.742188 55.734375 -5.421875 Z M 55.734375 -5.421875 "/></g></g></g></svg>